<svg xmlns="http://www.w3.org/2000/svg" viewBox="0 0 17 17"><defs><style>.cls-1{fill:none;stroke:#292c33;stroke-linejoin:round;}</style></defs><title>cog</title><g id="Capa_2" data-name="Capa 2"><g id="Layer_1" data-name="Layer 1"><path class="cls-1" d="M9.69,16.5H7.31c-.15-.42-.32-.83-.45-1.25a.67.67,0,0,0-.52-.54,2.88,2.88,0,0,1-.83-.35.45.45,0,0,0-.51,0l-1,.55a.32.32,0,0,1-.42-.06l-1.39-1.4a.3.3,0,0,1-.06-.41c.18-.33.33-.68.52-1a.56.56,0,0,0,0-.62,3.48,3.48,0,0,1-.36-.87.53.53,0,0,0-.42-.39C1.39,10,1,9.85.5,9.69V7.31c.42-.15.83-.32,1.26-.45a.66.66,0,0,0,.53-.51,3.44,3.44,0,0,1,.37-.86.43.43,0,0,0,0-.46c-.2-.35-.37-.72-.56-1.08a.31.31,0,0,1,.05-.42c.47-.46.94-.92,1.4-1.39A.3.3,0,0,1,4,2.08c.31.16.64.31.94.49a.65.65,0,0,0,.74,0,3.16,3.16,0,0,1,.83-.34.48.48,0,0,0,.36-.38C7,1.41,7.15,1,7.31.5H9.69c.17.48.33,1,.52,1.43a.63.63,0,0,0,.28.28,9.91,9.91,0,0,0,1.06.45.58.58,0,0,0,.39,0c.37-.17.73-.36,1.08-.55a.33.33,0,0,1,.47.06c.45.46.89.91,1.35,1.35A.34.34,0,0,1,14.9,4c-.18.33-.33.67-.52,1a.51.51,0,0,0,0,.57,3.89,3.89,0,0,1,.37.89.54.54,0,0,0,.39.38c.46.15.91.33,1.37.49V9.69c-.41.15-.81.32-1.22.44a.7.7,0,0,0-.58.55,3.57,3.57,0,0,1-.35.83.41.41,0,0,0,0,.46c.2.34.36.71.55,1a.34.34,0,0,1-.06.47q-.69.66-1.35,1.35a.34.34,0,0,1-.47.06c-.34-.19-.7-.35-1-.55a.43.43,0,0,0-.46,0,4.83,4.83,0,0,1-.88.37.63.63,0,0,0-.48.5C10,15.65,9.84,16.07,9.69,16.5Z"/><circle class="cls-1" cx="8.5" cy="8.5" r="3.33"/></g></g></svg>