<svg xmlns="http://www.w3.org/2000/svg" viewBox="0 0 15 17"><defs><style>.cls-1{fill:none;stroke:#292c33;stroke-linejoin:round;}.cls-2{fill:#db0074;}</style></defs><title>icon-bell</title><g id="Capa_2" data-name="Capa 2"><g id="Layer_1" data-name="Layer 1"><path class="cls-1" d="M9.5,2.5a2,2,0,0,0-2-2h0a2,2,0,0,0-2,2"/><path class="cls-1" d="M5.5,14.5a2,2,0,0,0,2,2h0a2,2,0,0,0,2-2"/><rect class="cls-1" x="0.5" y="11.5" width="14" height="3" rx="1.5"/><path class="cls-1" d="M7,2.5H8.1a4.43,4.43,0,0,1,4.43,4.43V11.5a0,0,0,0,1,0,0h-10a0,0,0,0,1,0,0V6.93A4.43,4.43,0,0,1,7,2.5Z"/><circle class="cls-2" cx="11.5" cy="3.5" r="3"/></g></g></svg>