<?xml version="1.0" standalone="no"?>
<!DOCTYPE svg PUBLIC "-//W3C//DTD SVG 1.1//EN" "http://www.w3.org/Graphics/SVG/1.1/DTD/svg11.dtd" >
<svg xmlns="http://www.w3.org/2000/svg">
<metadata>Generated by IcoMoon</metadata>
<defs>
<font id="icomoon" horiz-adv-x="1024">
<font-face units-per-em="1024" ascent="960" descent="-64" />
<missing-glyph horiz-adv-x="1024" />
<glyph unicode="&#x20;" horiz-adv-x="512" d="" />
<glyph unicode="&#xe900;" glyph-name="Icons_agregar-copy" d="M271.059 478.118h481.882v-60.235h-481.882v60.235zM481.882 688.941h60.235v-481.882h-60.235v481.882zM512-64c-282.77 0-512 229.23-512 512s229.23 512 512 512c282.77 0 512-229.23 512-512v0c-0.343-282.632-229.368-511.657-511.967-512h-0.033zM512 899.765c-249.503 0-451.765-202.262-451.765-451.765s202.262-451.765 451.765-451.765c249.503 0 451.765 202.262 451.765 451.765v0c0 249.503-202.262 451.765-451.765 451.765v0z" />
<glyph unicode="&#xe901;" glyph-name="Icons_agregar" d="M30.118 478.118h963.765v-60.235h-963.765v60.235zM481.882 929.882h60.235v-963.765h-60.235v963.765z" />
<glyph unicode="&#xe902;" glyph-name="Icons_almacenes" d="M933.647-3.765h-843.294c-49.901 0-90.353 40.452-90.353 90.353v0 722.824c0 49.901 40.452 90.353 90.353 90.353v0h843.294c49.901 0 90.353-40.452 90.353-90.353v0-722.824c0-49.901-40.452-90.353-90.353-90.353v0zM90.353 839.529c-16.634 0-30.118-13.484-30.118-30.118v0-722.824c0-16.634 13.484-30.118 30.118-30.118v0h843.294c16.634 0 30.118 13.484 30.118 30.118v0 722.824c0 16.634-13.484 30.118-30.118 30.118v0zM512 116.706h-361.412c-16.634 0-30.118 13.484-30.118 30.118v0 301.176c0 16.634 13.484 30.118 30.118 30.118v0h361.412c16.634 0 30.118-13.484 30.118-30.118v0-301.176c0-16.634-13.484-30.118-30.118-30.118v0zM180.706 176.941h301.176v240.941h-301.176zM391.529 598.588c-83.168 0-150.588 67.421-150.588 150.588v0 120.471c0 16.634 13.484 30.118 30.118 30.118v0h240.941c16.634 0 30.118-13.484 30.118-30.118v0-120.471c0-83.168-67.421-150.588-150.588-150.588v0zM301.176 839.529v-90.353c0-49.901 40.452-90.353 90.353-90.353s90.353 40.452 90.353 90.353v0 90.353zM873.412 598.588c-83.168 0-150.588 67.421-150.588 150.588v0 120.471c0 16.634 13.484 30.118 30.118 30.118v0h180.706c49.901 0 90.353-40.452 90.353-90.353v0-60.235c0-83.168-67.421-150.588-150.588-150.588v0zM783.059 839.529v-90.353c0-49.901 40.452-90.353 90.353-90.353s90.353 40.452 90.353 90.353v0 60.235c0 16.634-13.484 30.118-30.118 30.118v0zM150.588 598.588c-83.168 0-150.588 67.421-150.588 150.588v0 60.235c0 49.901 40.452 90.353 90.353 90.353v0h180.706c16.634 0 30.118-13.484 30.118-30.118v0-120.471c0-83.168-67.421-150.588-150.588-150.588v0zM90.353 839.529c-16.634 0-30.118-13.484-30.118-30.118v0-60.235c0-49.901 40.452-90.353 90.353-90.353s90.353 40.452 90.353 90.353v0 90.353zM632.471 598.588c-83.168 0-150.588 67.421-150.588 150.588v0 120.471c0 16.634 13.484 30.118 30.118 30.118v0h240.941c16.634 0 30.118-13.484 30.118-30.118v0-120.471c0-83.168-67.421-150.588-150.588-150.588v0zM542.118 839.529v-90.353c0-49.901 40.452-90.353 90.353-90.353s90.353 40.452 90.353 90.353v0 90.353zM873.412-3.765h-240.941c-16.634 0-30.118 13.484-30.118 30.118v0 421.647c0 16.634 13.484 30.118 30.118 30.118v0h240.941c16.634 0 30.118-13.484 30.118-30.118v0-421.647c0-16.634-13.484-30.118-30.118-30.118v0zM662.588 56.471h180.706v361.412h-180.706z" />
<glyph unicode="&#xe903;" glyph-name="Icons_busqueda" d="M451.765 56.471c-249.503 0-451.765 202.262-451.765 451.765s202.262 451.765 451.765 451.765c249.503 0 451.765-202.262 451.765-451.765v0c0-249.503-202.262-451.765-451.765-451.765v0zM451.765 899.765c-216.236 0-391.529-175.294-391.529-391.529s175.294-391.529 391.529-391.529c216.236 0 391.529 175.294 391.529 391.529v0c-0.342 216.098-175.431 391.187-391.496 391.529h-0.033zM728.112 188.312l42.593 42.593 244.057-244.057-42.593-42.593-244.057 244.057z" />
<glyph unicode="&#xe904;" glyph-name="Icons_check" d="M375.266 176.941c-8.167 0.081-15.572 3.275-21.1 8.449l0.018-0.016-224.678 217.449 42.165 43.369 203.595-196.969 477.064 461.402 42.165-43.369-498.146-481.882c-5.564-5.065-12.935-8.232-21.042-8.432l-0.040-0.001z" />
<glyph unicode="&#xe905;" glyph-name="Icons_correo" d="M933.647 56.471h-843.294c-49.901 0-90.353 40.452-90.353 90.353v0 602.353c0 49.901 40.452 90.353 90.353 90.353v0h843.294c49.901 0 90.353-40.452 90.353-90.353v0-602.353c0-49.901-40.452-90.353-90.353-90.353v0zM90.353 779.294c-16.634 0-30.118-13.484-30.118-30.118v0-602.353c0-16.634 13.484-30.118 30.118-30.118v0h843.294c16.634 0 30.118 13.484 30.118 30.118v0 602.353c0 16.634-13.484 30.118-30.118 30.118v0zM512 297.412c-0.18-0.004-0.392-0.006-0.605-0.006-6.618 0-12.705 2.271-17.526 6.076l0.060-0.046-481.882 361.412 36.141 48.188 463.812-348.16 463.812 348.16 36.141-48.188-481.882-361.412c-4.761-3.759-10.848-6.030-17.466-6.030-0.213 0-0.425 0.002-0.636 0.007l0.031-0.001z" />
<glyph unicode="&#xe906;" glyph-name="Icons_CRM-copy-2" d="M873.412-64c-0.169-0.004-0.368-0.006-0.568-0.006-7.512 0-14.325 2.989-19.316 7.843l0.006-0.006-70.475 63.247-70.475-63.247c-5.225-4.773-12.21-7.697-19.878-7.697s-14.653 2.924-19.9 7.718l0.023-0.021-70.475 63.247-70.475-63.247c-5.225-4.773-12.21-7.697-19.878-7.697s-14.653 2.924-19.9 7.718l0.023-0.021-70.475 63.247-70.475-63.247c-5.225-4.773-12.21-7.697-19.878-7.697s-14.653 2.924-19.9 7.718l0.023-0.021-70.475 63.247-70.475-63.247c-5.417-5.921-13.178-9.621-21.803-9.621-3.633 0-7.112 0.656-10.326 1.857l0.204-0.067c-10.783 4.926-18.142 15.617-18.142 28.027 0 0.736 0.026 1.465 0.077 2.188l-0.005-0.097v903.529c0 49.901 40.452 90.353 90.353 90.353v0h602.353c49.901 0 90.353-40.452 90.353-90.353v0-903.529c-0.118-12.269-7.411-22.807-17.88-27.629l-0.191-0.079c-3.29-1.53-7.141-2.423-11.201-2.423-0.297 0-0.594 0.005-0.889 0.014l0.043-0.001zM602.353 77.553c0.090 0.001 0.196 0.002 0.302 0.002 7.493 0 14.346-2.736 19.616-7.263l-0.040 0.034 70.475-63.849 70.475 63.849c5.225 4.773 12.21 7.697 19.878 7.697s14.653-2.924 19.9-7.718l-0.023 0.021 40.358-36.744v836.066c0 16.634-13.484 30.118-30.118 30.118v0h-602.353c-16.634 0-30.118-13.484-30.118-30.118v0-836.066l40.358 36.744c5.225 4.773 12.21 7.697 19.878 7.697s14.653-2.924 19.9-7.718l-0.023 0.021 70.475-63.849 70.475 63.849c5.225 4.773 12.21 7.697 19.878 7.697s14.653-2.924 19.9-7.718l-0.023 0.021 70.475-63.849 70.475 63.849c5.23 4.494 12.083 7.23 19.576 7.23 0.106 0 0.212-0.001 0.318-0.002h-0.016zM512 176.941c-19.894 0-37.846 8.314-50.571 21.657l-0.026 0.028-180.706 199.379c-4.879 5.416-7.863 12.622-7.863 20.525 0 4.335 0.898 8.461 2.518 12.201l-0.077-0.199c4.304 10.64 14.103 18.222 25.783 19.267l0.118 0.009h83.125v199.981c-0.002 0.179-0.003 0.391-0.003 0.602 0 37.924 30.744 68.668 68.668 68.668 0.001 0 0.002 0 0.003 0h115.049c37.455-0.338 67.728-30.611 68.066-68.034v-201.218h86.739c12.269-0.118 22.807-7.411 27.629-17.88l0.079-0.191c1.544-3.541 2.442-7.667 2.442-12.002 0-7.903-2.984-15.109-7.887-20.552l0.024 0.028-180.706-199.379c-12.83-14.087-31.247-22.893-51.721-22.893-0.24 0-0.48 0.001-0.72 0.004h0.037zM369.845 389.572l136.132-148.781c1.314-1.96 3.52-3.233 6.024-3.233s4.71 1.273 6.007 3.207l0.016 0.026 136.132 148.781h-48.188c-16.634 0-30.118 13.484-30.118 30.118v0 230.099c0.059 0.362 0.093 0.78 0.093 1.205 0 4.325-3.506 7.831-7.831 7.831-0.033 0-0.066 0-0.098-0.001h-115.044c-0.18 0.015-0.39 0.023-0.602 0.023-4.325 0-7.831-3.506-7.831-7.831 0-0.008 0-0.016 0-0.024v0.001-233.111c0-16.634-13.484-30.118-30.118-30.118v0z" />
<glyph unicode="&#xe907;" glyph-name="Icons_CRM-copy-3" d="M873.412-64c-0.169-0.004-0.368-0.006-0.568-0.006-7.512 0-14.325 2.989-19.316 7.843l0.006-0.006-70.475 63.247-70.475-63.247c-5.225-4.773-12.21-7.697-19.878-7.697s-14.653 2.924-19.9 7.718l0.023-0.021-70.475 63.247-70.475-63.247c-5.225-4.773-12.21-7.697-19.878-7.697s-14.653 2.924-19.9 7.718l0.023-0.021-70.475 63.247-70.475-63.247c-5.225-4.773-12.21-7.697-19.878-7.697s-14.653 2.924-19.9 7.718l0.023-0.021-70.475 63.247-70.475-63.247c-5.417-5.921-13.178-9.621-21.803-9.621-3.633 0-7.112 0.656-10.326 1.857l0.204-0.067c-10.783 4.926-18.142 15.617-18.142 28.027 0 0.736 0.026 1.465 0.077 2.188l-0.005-0.097v903.529c0 49.901 40.452 90.353 90.353 90.353v0h602.353c49.901 0 90.353-40.452 90.353-90.353v0-903.529c-0.118-12.269-7.411-22.807-17.88-27.629l-0.191-0.079c-3.29-1.53-7.141-2.423-11.201-2.423-0.297 0-0.594 0.005-0.889 0.014l0.043-0.001zM602.353 77.553c0.090 0.001 0.196 0.002 0.302 0.002 7.493 0 14.346-2.736 19.616-7.263l-0.040 0.034 70.475-63.849 70.475 63.849c5.225 4.773 12.21 7.697 19.878 7.697s14.653-2.924 19.9-7.718l-0.023 0.021 40.358-36.744v836.066c0 16.634-13.484 30.118-30.118 30.118v0h-602.353c-16.634 0-30.118-13.484-30.118-30.118v0-836.066l40.358 36.744c5.225 4.773 12.21 7.697 19.878 7.697s14.653-2.924 19.9-7.718l-0.023 0.021 70.475-63.849 70.475 63.849c5.225 4.773 12.21 7.697 19.878 7.697s14.653-2.924 19.9-7.718l-0.023 0.021 70.475-63.849 70.475 63.849c5.23 4.494 12.083 7.23 19.576 7.23 0.106 0 0.212-0.001 0.318-0.002h-0.016zM443.332 297.412c-0.301-0.011-0.655-0.017-1.011-0.017-8.053 0-15.353 3.225-20.678 8.455l0.004-0.004-111.435 108.424 42.165 43.369 90.955-87.944 228.292 220.461 42.165-43.369-249.374-240.941c-5.408-5.218-12.779-8.433-20.901-8.433-0.064 0-0.127 0-0.191 0.001h0.010z" />
<glyph unicode="&#xe908;" glyph-name="Icons_CRM-copy-4" d="M873.412-64c-0.169-0.004-0.368-0.006-0.568-0.006-7.512 0-14.325 2.989-19.316 7.843l0.006-0.006-70.475 63.247-70.475-63.247c-5.225-4.773-12.21-7.697-19.878-7.697s-14.653 2.924-19.9 7.718l0.023-0.021-70.475 63.247-70.475-63.247c-5.225-4.773-12.21-7.697-19.878-7.697s-14.653 2.924-19.9 7.718l0.023-0.021-70.475 63.247-70.475-63.247c-5.225-4.773-12.21-7.697-19.878-7.697s-14.653 2.924-19.9 7.718l0.023-0.021-70.475 63.247-70.475-63.247c-5.417-5.921-13.178-9.621-21.803-9.621-3.633 0-7.112 0.656-10.326 1.857l0.204-0.067c-10.783 4.926-18.142 15.617-18.142 28.027 0 0.736 0.026 1.465 0.077 2.188l-0.005-0.097v903.529c0 49.901 40.452 90.353 90.353 90.353v0h602.353c49.901 0 90.353-40.452 90.353-90.353v0-903.529c-0.118-12.269-7.411-22.807-17.88-27.629l-0.191-0.079c-3.29-1.53-7.141-2.423-11.201-2.423-0.297 0-0.594 0.005-0.889 0.014l0.043-0.001zM602.353 77.553c0.090 0.001 0.196 0.002 0.302 0.002 7.493 0 14.346-2.736 19.616-7.263l-0.040 0.034 70.475-63.849 70.475 63.849c5.225 4.773 12.21 7.697 19.878 7.697s14.653-2.924 19.9-7.718l-0.023 0.021 40.358-36.744v836.066c0 16.634-13.484 30.118-30.118 30.118v0h-602.353c-16.634 0-30.118-13.484-30.118-30.118v0-836.066l40.358 36.744c5.225 4.773 12.21 7.697 19.878 7.697s14.653-2.924 19.9-7.718l-0.023 0.021 70.475-63.849 70.475 63.849c5.225 4.773 12.21 7.697 19.878 7.697s14.653-2.924 19.9-7.718l-0.023 0.021 70.475-63.849 70.475 63.849c5.23 4.494 12.083 7.23 19.576 7.23 0.106 0 0.212-0.001 0.318-0.002h-0.016zM339.974 577.482l42.593 42.593 301.131-301.131-42.593-42.593-301.131 301.131zM339.974 318.518l301.131 301.131 42.593-42.593-301.131-301.131-42.593 42.593z" />
<glyph unicode="&#xe909;" glyph-name="Icons_CRM" d="M271.661 809.412h484.894v-60.235h-484.894v60.235zM271.661 635.934h484.894v-60.235h-484.894v60.235zM271.661 461.854h484.894v-60.235h-484.894v60.235zM271.661 287.774h484.894v-60.235h-484.894v60.235zM873.412-64c-0.169-0.004-0.368-0.006-0.568-0.006-7.512 0-14.325 2.989-19.316 7.843l0.006-0.006-70.475 63.247-70.475-63.247c-5.225-4.773-12.21-7.697-19.878-7.697s-14.653 2.924-19.9 7.718l0.023-0.021-70.475 63.247-70.475-63.247c-5.225-4.773-12.21-7.697-19.878-7.697s-14.653 2.924-19.9 7.718l0.023-0.021-70.475 63.247-70.475-63.247c-5.225-4.773-12.21-7.697-19.878-7.697s-14.653 2.924-19.9 7.718l0.023-0.021-70.475 63.247-70.475-63.247c-5.417-5.921-13.178-9.621-21.803-9.621-3.633 0-7.112 0.656-10.326 1.857l0.204-0.067c-10.783 4.926-18.142 15.617-18.142 28.027 0 0.736 0.026 1.465 0.077 2.188l-0.005-0.097v903.529c0 49.901 40.452 90.353 90.353 90.353v0h602.353c49.901 0 90.353-40.452 90.353-90.353v0-903.529c-0.118-12.269-7.411-22.807-17.88-27.629l-0.191-0.079c-3.29-1.53-7.141-2.423-11.201-2.423-0.297 0-0.594 0.005-0.889 0.014l0.043-0.001zM602.353 77.553c0.090 0.001 0.196 0.002 0.302 0.002 7.493 0 14.346-2.736 19.616-7.263l-0.040 0.034 70.475-63.849 70.475 63.849c5.225 4.773 12.21 7.697 19.878 7.697s14.653-2.924 19.9-7.718l-0.023 0.021 40.358-36.744v836.066c0 16.634-13.484 30.118-30.118 30.118v0h-602.353c-16.634 0-30.118-13.484-30.118-30.118v0-836.066l40.358 36.744c5.225 4.773 12.21 7.697 19.878 7.697s14.653-2.924 19.9-7.718l-0.023 0.021 70.475-63.849 70.475 63.849c5.225 4.773 12.21 7.697 19.878 7.697s14.653-2.924 19.9-7.718l-0.023 0.021 70.475-63.849 70.475 63.849c5.23 4.494 12.083 7.23 19.576 7.23 0.106 0 0.212-0.001 0.318-0.002h-0.016z" />
<glyph unicode="&#xe90a;" glyph-name="Icons_descargar" d="M933.647-64h-843.294c-49.901 0-90.353 40.452-90.353 90.353v0 120.471h60.235v-120.471c0-16.634 13.484-30.118 30.118-30.118v0h843.294c16.634 0 30.118 13.484 30.118 30.118v0 120.471h60.235v-120.471c0-49.901-40.452-90.353-90.353-90.353v0zM512 145.619c-26.678 0.635-50.443 12.585-66.771 31.217l-0.090 0.105-286.72 310.814c-4.879 5.416-7.863 12.622-7.863 20.525 0 4.335 0.898 8.461 2.518 12.201l-0.077-0.199c4.901 10.659 15.439 17.952 27.693 18.070h148.194v331.294c0 0.010 0 0.021 0 0.032 0 49.901 40.452 90.353 90.353 90.353 0.847 0 1.692-0.012 2.533-0.035l-0.124 0.003h180.706c49.901 0 90.353-40.452 90.353-90.353v0-331.294h150.588c12.269-0.118 22.807-7.411 27.629-17.88l0.079-0.191c1.544-3.541 2.442-7.667 2.442-12.002 0-7.903-2.984-15.109-7.887-20.552l0.024 0.028-286.72-310.814c-16.418-18.737-40.183-30.687-66.751-31.32l-0.11-0.002zM249.374 478.118l240.941-262.626c5.61-5.904 13.519-9.577 22.287-9.577s16.678 3.673 22.275 9.564l0.012 0.013 240.941 262.626h-113.242c-16.634 0-30.118 13.484-30.118 30.118v0 361.412c0 16.634-13.484 30.118-30.118 30.118v0h-180.706c-16.634 0-30.118-13.484-30.118-30.118v0-361.412c0-16.634-13.484-30.118-30.118-30.118v0z" />
<glyph unicode="&#xe90b;" glyph-name="Icons_editar" d="M881.845 557.026c-8.474 0.021-16.139 3.471-21.684 9.034l-230.1 230.1c-5.502 5.459-8.909 13.023-8.909 21.384s3.406 15.925 8.907 21.382l0.002 0.002 92.762 95.774c16.508 16.219 39.16 26.232 64.151 26.232s47.643-10.012 64.164-26.245l145.154-145.154c16.693-16.247 27.203-38.773 27.707-63.756l0.001-0.094c0.058-1.213 0.091-2.635 0.091-4.064 0-24.412-9.681-46.563-25.414-62.822l0.024 0.025-95.172-92.762c-5.471-5.578-13.086-9.036-21.509-9.036-0.062 0-0.124 0-0.185 0.001h0.009zM693.911 817.845l187.934-187.934 74.089 74.089c4.869 5.574 7.839 12.917 7.839 20.954 0 0.257-0.003 0.513-0.009 0.769l0.001-0.038c-0.19 8.255-3.607 15.676-9.034 21.081l-0.001 0.001-143.962 145.167c-5.459 5.502-13.023 8.909-21.384 8.909s-15.925-3.406-21.382-8.907l-0.002-0.002zM328.885 4.066c-0.127-0.002-0.277-0.003-0.428-0.003-8.344 0-15.88 3.463-21.248 9.029l-230.108 230.108c-5.502 5.459-8.909 13.023-8.909 21.384s3.406 15.925 8.907 21.382l0.002 0.002 552.96 553.562c5.428 5.324 12.871 8.609 21.082 8.609s15.654-3.286 21.087-8.614l231.299-231.299c5.324-5.428 8.609-12.871 8.609-21.082s-3.286-15.654-8.614-21.087l0.005 0.005-553.562-552.96c-5.184-5.567-12.555-9.037-20.737-9.037-0.121 0-0.243 0.001-0.364 0.002h0.018zM140.951 264.885l187.934-187.934 510.193 510.193-187.934 187.934zM28.913-64c-0.103-0.001-0.224-0.002-0.345-0.002-8.182 0-15.553 3.471-20.722 9.020l-0.016 0.017c-5.24 5.412-8.469 12.798-8.469 20.938 0 2.184 0.232 4.314 0.674 6.366l-0.036-0.198 68.668 301.176c2.506 10.77 10.534 19.198 20.869 22.233l0.213 0.054c2.48 0.752 5.329 1.185 8.28 1.185 8.333 0 15.86-3.454 21.227-9.007l0.008-0.008 230.701-231.304c5.562-5.375 9.016-12.902 9.016-21.235 0-2.951-0.433-5.801-1.239-8.489l0.054 0.209c-3.089-10.548-11.517-18.577-22.083-21.042l-0.204-0.040-299.369-69.873zM115.652 205.854l-46.381-199.379 199.379 45.779z" />
<glyph unicode="&#xe90c;" glyph-name="Icons_eliminar" d="M662.588 809.412h-60.235c0 49.901-40.452 90.353-90.353 90.353s-90.353-40.452-90.353-90.353v0h-60.235c0 83.168 67.421 150.588 150.588 150.588s150.588-67.421 150.588-150.588v0zM752.941-64h-481.882c-49.901 0-90.353 40.452-90.353 90.353v0 602.353c0 16.634 13.484 30.118 30.118 30.118v0h602.353c16.634 0 30.118-13.484 30.118-30.118v0-602.353c0-49.901-40.452-90.353-90.353-90.353v0zM240.941 598.588v-572.235c0-16.634 13.484-30.118 30.118-30.118v0h481.882c16.634 0 30.118 13.484 30.118 30.118v0 572.235zM843.294 598.588h-662.588c-66.534 0-120.471 53.937-120.471 120.471s53.937 120.471 120.471 120.471v0h662.588c66.534 0 120.471-53.937 120.471-120.471s-53.937-120.471-120.471-120.471v0zM180.706 779.294c-33.267 0-60.235-26.968-60.235-60.235s26.968-60.235 60.235-60.235v0h662.588c33.267 0 60.235 26.968 60.235 60.235s-26.968 60.235-60.235 60.235v0zM301.176 478.118h60.235v-361.412h-60.235v361.412zM662.588 478.118h60.235v-361.412h-60.235v361.412zM481.882 478.118h60.235v-361.412h-60.235v361.412z" />
<glyph unicode="&#xe90d;" glyph-name="Icons_eventos" d="M933.647-64h-843.294c-49.901 0-90.353 40.452-90.353 90.353v0 783.059c0 49.901 40.452 90.353 90.353 90.353v0h843.294c49.901 0 90.353-40.452 90.353-90.353v0-783.059c0-49.901-40.452-90.353-90.353-90.353v0zM90.353 839.529c-16.634 0-30.118-13.484-30.118-30.118v0-783.059c0-16.634 13.484-30.118 30.118-30.118v0h843.294c16.634 0 30.118 13.484 30.118 30.118v0 783.059c0 16.634-13.484 30.118-30.118 30.118v0zM180.706 929.882h60.235v-120.471h-60.235v120.471zM783.059 929.882h60.235v-120.471h-60.235v120.471zM30.118 719.059h963.765v-60.235h-963.765v60.235zM391.529 237.176h-120.471c-49.901 0-90.353 40.452-90.353 90.353v0 120.471c0 49.901 40.452 90.353 90.353 90.353v0h120.471c49.901 0 90.353-40.452 90.353-90.353v0-120.471c0-49.901-40.452-90.353-90.353-90.353v0zM271.059 478.118c-16.634 0-30.118-13.484-30.118-30.118v0-120.471c0-16.634 13.484-30.118 30.118-30.118v0h120.471c16.634 0 30.118 13.484 30.118 30.118v0 120.471c0 16.634-13.484 30.118-30.118 30.118v0z" />
<glyph unicode="&#xe90e;" glyph-name="Icons_facebook-copy-2" d="M813.176 779.294h-602.353c-16.634 0-30.118 13.484-30.118 30.118v0 120.471c0 16.634 13.484 30.118 30.118 30.118v0h602.353c16.634 0 30.118-13.484 30.118-30.118v0-120.471c0-16.634-13.484-30.118-30.118-30.118v0zM240.941 839.529h542.118v60.235h-542.118zM813.176-64h-602.353c-16.634 0-30.118 13.484-30.118 30.118v0 120.471c0 16.634 13.484 30.118 30.118 30.118v0h602.353c16.634 0 30.118-13.484 30.118-30.118v0-120.471c0-16.634-13.484-30.118-30.118-30.118v0zM240.941-3.765h542.118v60.235h-542.118zM512 417.882c-1.992-0.434-4.28-0.682-6.626-0.682s-4.634 0.248-6.839 0.72l0.213-0.038-174.682 90.353c-49.669 25.134-83.126 75.79-83.126 134.259 0 0.235 0.001 0.469 0.002 0.704v-0.036 166.249c0 16.634 13.484 30.118 30.118 30.118v0h481.882c16.634 0 30.118-13.484 30.118-30.118v0-166.249c0.001-0.198 0.001-0.433 0.001-0.668 0-58.47-33.457-109.125-82.271-133.866l-0.855-0.393-174.682-90.353c-1.992-0.434-4.28-0.682-6.626-0.682s-4.634 0.248-6.839 0.72l0.213-0.038zM301.176 779.294v-136.132c-0.001-0.142-0.001-0.31-0.001-0.478 0-35.191 20.119-65.684 49.483-80.603l0.514-0.237 160.828-80.113 160.828 80.113c29.877 15.156 49.997 45.648 49.997 80.839 0 0.168 0 0.336-0.001 0.504v-0.026 136.132zM752.941 56.471h-481.882c-16.634 0-30.118 13.484-30.118 30.118v0 166.249c-0.001 0.198-0.001 0.433-0.001 0.668 0 58.47 33.457 109.125 82.271 133.866l0.855 0.393 174.682 87.341c3.859 1.981 8.42 3.142 13.252 3.142s9.393-1.161 13.419-3.22l-0.167 0.077 174.682-87.341c49.669-25.134 83.126-75.79 83.126-134.259 0-0.235-0.001-0.469-0.002-0.704v0.036-166.249c0-16.634-13.484-30.118-30.118-30.118v0zM301.176 116.706h421.647v136.132c0.001 0.142 0.001 0.31 0.001 0.478 0 35.191-20.119 65.684-49.483 80.603l-0.514 0.237-160.828 80.113-160.828-80.113c-29.877-15.156-49.997-45.648-49.997-80.839 0-0.168 0-0.336 0.001-0.504v0.026z" />
<glyph unicode="&#xe90f;" glyph-name="Icons_facebook-copy-3" d="M512-64c-83.168 0-150.588 67.421-150.588 150.588v0h60.235c0-49.901 40.452-90.353 90.353-90.353s90.353 40.452 90.353 90.353v0h60.235c0-83.168-67.421-150.588-150.588-150.588v0zM692.706 56.471h-361.412c-16.634 0-30.118 13.484-30.118 30.118v0 120.471c0 16.634 13.484 30.118 30.118 30.118v0h361.412c16.634 0 30.118-13.484 30.118-30.118v0-120.471c0-16.634-13.484-30.118-30.118-30.118v0zM361.412 116.706h301.176v60.235h-301.176zM481.882 568.471h60.235v-361.412h-60.235v361.412zM401.769 598.588h219.859v-60.235h-219.859v60.235zM692.706 176.941h-361.412c-16.634 0-30.118 13.484-30.118 30.118v0 71.68c-1.584 58.571-22.194 112.040-55.84 154.761l0.424-0.558c-41.13 54.033-65.894 122.466-65.894 196.682 0 21.403 2.060 42.326 5.992 62.58l-0.333-2.057c25.233 131.493 125.581 234.065 253.81 262.222l2.19 0.404c21.323 4.841 45.81 7.615 70.945 7.615 79.993 0 153.424-28.095 210.963-74.957l-0.609 0.481c73.808-61.101 120.476-152.739 120.476-255.277 0-0.678-0.002-1.355-0.006-2.032v0.104c0.015-1.177 0.024-2.568 0.024-3.96 0-70.799-22.578-136.324-60.926-189.769l0.666 0.977c-35.624-44.322-57.956-100.667-60.221-162.138l-0.015-0.497v-66.259c0-16.634-13.484-30.118-30.118-30.118v0zM361.412 237.176h301.176v36.141c1.714 75.020 27.486 143.704 69.867 198.985l-0.597-0.811c31.989 43.275 51.201 97.686 51.201 156.584 0 0.222 0 0.443-0.001 0.664v-0.034c0 0.168 0.001 0.366 0.001 0.565 0 84.611-38.768 160.168-99.509 209.876l-0.482 0.382c-46.596 37.593-106.531 60.344-171.78 60.344-20.445 0-40.369-2.234-59.54-6.471l1.824 0.338c-122.371-27.586-212.401-135.355-212.401-264.152 0-60.417 19.811-116.207 53.29-161.229l-0.513 0.722c40.704-52.12 65.832-118.147 67.457-189.976l0.007-0.368z" />
<glyph unicode="&#xe910;" glyph-name="Icons_facebook-copy" d="M512 237.176c-116.435 0-210.824 94.389-210.824 210.824s94.389 210.824 210.824 210.824c116.435 0 210.824-94.389 210.824-210.824v0c0-116.435-94.389-210.824-210.824-210.824v0zM512 598.588c-83.168 0-150.588-67.421-150.588-150.588s67.421-150.588 150.588-150.588c83.168 0 150.588 67.421 150.588 150.588v0c0 83.168-67.421 150.588-150.588 150.588v0zM774.626-64h-525.252c-137.588 0.342-249.032 111.786-249.374 249.341v525.285c0.342 137.588 111.786 249.032 249.341 249.374h525.285c137.588-0.342 249.032-111.786 249.374-249.341v-525.285c-0.342-137.588-111.786-249.032-249.341-249.374h-0.033zM249.374 899.765c-104.321-0.341-188.798-84.818-189.139-189.106v-525.285c0.341-104.321 84.818-188.798 189.106-189.139h525.285c104.321 0.341 188.798 84.818 189.139 189.106v525.285c-0.341 104.321-84.818 188.798-189.106 189.139h-0.033zM855.944 706.409c-10.918-11.005-26.047-17.817-42.767-17.817s-31.85 6.813-42.763 17.814l-0.004 0.004c-11.005 10.918-17.817 26.047-17.817 42.767s6.813 31.85 17.814 42.763l0.004 0.004c10.918 11.005 26.047 17.817 42.767 17.817s31.85-6.813 42.763-17.814l0.004-0.004c11.005-10.918 17.817-26.047 17.817-42.767s-6.813-31.85-17.814-42.763l-0.004-0.004z" />
<glyph unicode="&#xe911;" glyph-name="Icons_facebook" d="M583.68-64h-200.584c-16.634 0-30.118 13.484-30.118 30.118v0 451.765h-65.054c-16.499 0.331-29.787 13.619-30.117 30.086v169.895c0 16.634 13.484 30.118 30.118 30.118v0h65.054v80.113c-0.302 4.297-0.474 9.311-0.474 14.366 0 120.427 97.625 218.052 218.052 218.052 5.254 0 10.464-0.186 15.624-0.551l-0.694 0.039h148.179c16.634 0 30.118-13.484 30.118-30.118v0-165.647c0-16.634-13.484-30.118-30.118-30.118v0h-107.821c-7.228 0-12.047 0-12.047-16.264v-69.873h120.471c8.875-0.104 16.813-4.030 22.259-10.207l0.028-0.033c4.633-5.025 7.474-11.764 7.474-19.166 0-1.313-0.089-2.605-0.262-3.871l0.016 0.147-17.468-170.466c-1.564-15.134-14.133-26.868-29.491-27.106h-103.026v-451.162c0-16.634-13.484-30.118-30.118-30.118v0zM413.214-3.765h140.348v451.162c0 16.634 13.484 30.118 30.118 30.118v0h107.821l10.842 110.231h-120.471c-16.634 0-30.118 13.484-30.118 30.118v0 101.195c-0.166 1.814-0.26 3.923-0.26 6.054 0 38.922 31.553 70.475 70.475 70.475 0.727 0 1.452-0.011 2.173-0.033l-0.106 0.003h77.704v104.207h-120.471c-3.256 0.239-7.053 0.376-10.883 0.376-87.16 0-157.816-70.657-157.816-157.816 0-5.010 0.233-9.965 0.69-14.856l-0.047 0.626v-110.231c0-16.634-13.484-30.118-30.118-30.118v0h-65.054v-109.628h65.054c16.634 0 30.118-13.484 30.118-30.118v0z" />
<glyph unicode="&#xe912;" glyph-name="Icons_favorito" d="M512 6.475c-0.103-0.001-0.224-0.002-0.345-0.002-8.182 0-15.553 3.471-20.722 9.020l-0.016 0.017-411.407 411.407c-53.146 49.62-86.272 120.096-86.272 198.31 0 149.702 121.357 271.059 271.059 271.059 78.213 0 148.69-33.126 198.164-86.114l0.146-0.158 49.393-49.393 49.393 49.393c48.973 49.126 116.711 79.522 191.548 79.522s142.575-30.396 191.542-79.515l0.007-0.007c49.126-48.973 79.522-116.711 79.522-191.548s-30.396-142.575-79.515-191.542l-411.414-411.414c-5.184-5.567-12.555-9.037-20.737-9.037-0.121 0-0.243 0.001-0.364 0.002h0.018zM271.059 829.289c-0.51 0.004-1.112 0.007-1.715 0.007-58.209 0-110.876-23.726-148.859-62.035l-0.015-0.015c-39.214-38.226-63.537-91.567-63.537-150.588s24.323-112.362 63.493-150.545l0.044-0.043 391.529-386.711 391.529 389.722c38.302 38.085 62.007 90.816 62.007 149.082s-23.705 110.997-61.998 149.073l-0.010 0.010c-38.699 38.187-91.889 61.772-150.588 61.772s-111.889-23.585-150.612-61.796l0.024 0.023-69.271-70.475c-5.428-5.324-12.871-8.609-21.082-8.609s-15.654 3.286-21.087 8.614l0.005-0.005-69.271 70.475c-37.997 38.323-90.665 62.049-148.873 62.049-0.603 0-1.205-0.003-1.807-0.008l0.092 0.001z" />
<glyph unicode="&#xe913;" glyph-name="Icons_filtro-copy-2" d="M873.412 297.412c-83.168 0-150.588 67.421-150.588 150.588s67.421 150.588 150.588 150.588c83.168 0 150.588-67.421 150.588-150.588v0c0-83.168-67.421-150.588-150.588-150.588v0zM873.412 538.353c-49.901 0-90.353-40.452-90.353-90.353s40.452-90.353 90.353-90.353c49.901 0 90.353 40.452 90.353 90.353v0c0 49.901-40.452 90.353-90.353 90.353v0zM150.588 297.412c-83.168 0-150.588 67.421-150.588 150.588s67.421 150.588 150.588 150.588c83.168 0 150.588-67.421 150.588-150.588v0c0-83.168-67.421-150.588-150.588-150.588v0zM150.588 538.353c-49.901 0-90.353-40.452-90.353-90.353s40.452-90.353 90.353-90.353c49.901 0 90.353 40.452 90.353 90.353v0c0 49.901-40.452 90.353-90.353 90.353v0zM512 297.412c-83.168 0-150.588 67.421-150.588 150.588s67.421 150.588 150.588 150.588c83.168 0 150.588-67.421 150.588-150.588v0c0-83.168-67.421-150.588-150.588-150.588v0zM512 538.353c-49.901 0-90.353-40.452-90.353-90.353s40.452-90.353 90.353-90.353c49.901 0 90.353 40.452 90.353 90.353v0c0 49.901-40.452 90.353-90.353 90.353v0z" />
<glyph unicode="&#xe914;" glyph-name="Icons_filtro-copy-3" d="M271.059 929.882h60.235v-963.765h-60.235v963.765zM722.824 929.882h60.235v-963.765h-60.235v963.765z" />
<glyph unicode="&#xe915;" glyph-name="Icons_filtro-copy-4" d="M512 658.824c-83.168 0-150.588 67.421-150.588 150.588s67.421 150.588 150.588 150.588c83.168 0 150.588-67.421 150.588-150.588v0c0-83.168-67.421-150.588-150.588-150.588v0zM512 899.765c-49.901 0-90.353-40.452-90.353-90.353s40.452-90.353 90.353-90.353c49.901 0 90.353 40.452 90.353 90.353v0c0 49.901-40.452 90.353-90.353 90.353v0zM873.412 297.412c-83.168 0-150.588 67.421-150.588 150.588s67.421 150.588 150.588 150.588c83.168 0 150.588-67.421 150.588-150.588v0c0-83.168-67.421-150.588-150.588-150.588v0zM873.412 538.353c-49.901 0-90.353-40.452-90.353-90.353s40.452-90.353 90.353-90.353c49.901 0 90.353 40.452 90.353 90.353v0c0 49.901-40.452 90.353-90.353 90.353v0zM512-64c-83.168 0-150.588 67.421-150.588 150.588s67.421 150.588 150.588 150.588c83.168 0 150.588-67.421 150.588-150.588v0c0-83.168-67.421-150.588-150.588-150.588v0zM512 176.941c-49.901 0-90.353-40.452-90.353-90.353s40.452-90.353 90.353-90.353c49.901 0 90.353 40.452 90.353 90.353v0c0 49.901-40.452 90.353-90.353 90.353v0zM150.588 297.412c-83.168 0-150.588 67.421-150.588 150.588s67.421 150.588 150.588 150.588c83.168 0 150.588-67.421 150.588-150.588v0c0-83.168-67.421-150.588-150.588-150.588v0zM150.588 538.353c-49.901 0-90.353-40.452-90.353-90.353s40.452-90.353 90.353-90.353c49.901 0 90.353 40.452 90.353 90.353v0c0 49.901-40.452 90.353-90.353 90.353v0zM383.699 78.155c-112.972 40.538-200.403 127.97-240.078 238.195l-0.863 2.746 56.621 19.275c34.663-95.213 108.383-168.932 201.26-202.85l2.335-0.746zM640.301 78.155l-19.275 56.621c95.57 34.641 169.556 108.628 203.455 201.86l0.743 2.338 56.621-19.275c-40.513-113.331-128.212-201.030-238.794-240.683l-2.749-0.861zM825.224 557.026c-34.641 95.57-108.628 169.556-201.86 203.455l-2.338 0.743 19.275 56.621c112.972-40.538 200.403-127.97 240.078-238.195l0.863-2.746zM198.776 557.026l-56.621 19.275c40.538 112.972 127.97 200.403 238.195 240.078l2.746 0.863 19.275-56.621c-95.213-34.663-168.932-108.383-202.85-201.26l-0.746-2.335z" />
<glyph unicode="&#xe916;" glyph-name="Icons_filtro-copy-5" d="M301.176-64c-166.335 0-301.176 134.841-301.176 301.176s134.841 301.176 301.176 301.176c166.335 0 301.176-134.841 301.176-301.176v0c0-166.335-134.841-301.176-301.176-301.176v0zM301.176 478.118c-133.068 0-240.941-107.873-240.941-240.941s107.873-240.941 240.941-240.941c133.068 0 240.941 107.873 240.941 240.941v0c0 133.068-107.873 240.941-240.941 240.941v0zM593.92 274.522l-42.165 42.767 90.955 90.955v103.002h103.002l67.464 67.464v103.002h103.002l12.047 12.649c21.65 21.775 35.032 51.791 35.032 84.932s-13.382 63.157-35.038 84.938l0.006-0.006c-21.775 21.65-51.791 35.032-84.932 35.032s-63.157-13.382-84.938-35.038l0.006 0.006-377.073-376.471-42.767 42.165 377.073 377.073c33.191 31.541 78.179 50.942 127.699 50.942s94.508-19.401 127.778-51.017l-0.079 0.075c32.654-32.693 52.848-77.838 52.848-127.699s-20.194-95.006-52.85-127.701l-30.116-30.116h-67.464v-67.464l-103.002-103.002h-67.464v-67.464zM301.176 116.706c-66.534 0-120.471 53.937-120.471 120.471s53.937 120.471 120.471 120.471c66.534 0 120.471-53.937 120.471-120.471v0c0-66.534-53.937-120.471-120.471-120.471v0zM301.176 297.412c-33.267 0-60.235-26.968-60.235-60.235s26.968-60.235 60.235-60.235c33.267 0 60.235 26.968 60.235 60.235v0c0 33.267-26.968 60.235-60.235 60.235v0zM450.942 471.539l454.465 454.465 42.593-42.593-454.465-454.465-42.593 42.593z" />
<glyph unicode="&#xe917;" glyph-name="Icons_filtro-copy" d="M150.588 297.412c-83.168 0-150.588 67.421-150.588 150.588s67.421 150.588 150.588 150.588c83.168 0 150.588-67.421 150.588-150.588v0c0-83.168-67.421-150.588-150.588-150.588v0zM150.588 538.353c-49.901 0-90.353-40.452-90.353-90.353s40.452-90.353 90.353-90.353c49.901 0 90.353 40.452 90.353 90.353v0c0 49.901-40.452 90.353-90.353 90.353v0zM873.412 658.824c-83.168 0-150.588 67.421-150.588 150.588s67.421 150.588 150.588 150.588c83.168 0 150.588-67.421 150.588-150.588v0c0-83.168-67.421-150.588-150.588-150.588v0zM873.412 899.765c-49.901 0-90.353-40.452-90.353-90.353s40.452-90.353 90.353-90.353c49.901 0 90.353 40.452 90.353 90.353v0c0 49.901-40.452 90.353-90.353 90.353v0zM873.412-64c-83.168 0-150.588 67.421-150.588 150.588s67.421 150.588 150.588 150.588c83.168 0 150.588-67.421 150.588-150.588v0c0-83.168-67.421-150.588-150.588-150.588v0zM873.412 176.941c-49.901 0-90.353-40.452-90.353-90.353s40.452-90.353 90.353-90.353c49.901 0 90.353 40.452 90.353 90.353v0c0 49.901-40.452 90.353-90.353 90.353v0zM244.928 528.913l507.491 253.8 26.943-53.874-507.491-253.8-26.943 53.874zM245.188 367.266l26.933 53.878 507.535-253.712-26.933-53.878-507.535 253.712z" />
<glyph unicode="&#xe918;" glyph-name="Icons_filtro" d="M331.294 658.824c-83.168 0-150.588 67.421-150.588 150.588s67.421 150.588 150.588 150.588c83.168 0 150.588-67.421 150.588-150.588v0c0-83.168-67.421-150.588-150.588-150.588v0zM331.294 899.765c-49.901 0-90.353-40.452-90.353-90.353s40.452-90.353 90.353-90.353c49.901 0 90.353 40.452 90.353 90.353v0c0 49.901-40.452 90.353-90.353 90.353v0zM451.765 839.529h542.118v-60.235h-542.118v60.235zM30.118 839.529h180.706v-60.235h-180.706v60.235zM692.706 297.412c-83.168 0-150.588 67.421-150.588 150.588s67.421 150.588 150.588 150.588c83.168 0 150.588-67.421 150.588-150.588v0c0-83.168-67.421-150.588-150.588-150.588v0zM692.706 538.353c-49.901 0-90.353-40.452-90.353-90.353s40.452-90.353 90.353-90.353c49.901 0 90.353 40.452 90.353 90.353v0c0 49.901-40.452 90.353-90.353 90.353v0zM813.176 478.118h180.706v-60.235h-180.706v60.235zM30.118 478.118h542.118v-60.235h-542.118v60.235zM331.294-64c-83.168 0-150.588 67.421-150.588 150.588s67.421 150.588 150.588 150.588c83.168 0 150.588-67.421 150.588-150.588v0c0-83.168-67.421-150.588-150.588-150.588v0zM331.294 176.941c-49.901 0-90.353-40.452-90.353-90.353s40.452-90.353 90.353-90.353c49.901 0 90.353 40.452 90.353 90.353v0c0 49.901-40.452 90.353-90.353 90.353v0zM451.765 116.706h542.118v-60.235h-542.118v60.235zM30.118 116.706h180.706v-60.235h-180.706v60.235z" />
<glyph unicode="&#xe919;" glyph-name="Icons_flecha_abajo" d="M512 237.176c-0.103-0.001-0.224-0.002-0.345-0.002-8.182 0-15.553 3.471-20.722 9.020l-0.016 0.017-361.412 361.412 42.165 42.165 340.329-339.727 340.329 339.727 42.165-42.165-361.412-361.412c-5.184-5.567-12.555-9.037-20.737-9.037-0.121 0-0.243 0.001-0.364 0.002h0.018z" />
<glyph unicode="&#xe91a;" glyph-name="Icons_foto" d="M891.482 24.546v0l-771.012 15.661c-70.012 0.674-126.507 57.586-126.507 127.693 0 0.637 0.005 1.274 0.014 1.909l-0.001-0.096 9.035 433.092c1.677 68.892 57.922 124.098 127.061 124.098 0.648 0 1.294-0.005 1.94-0.015l-0.098 0.001h115.652c4.326 0.146 7.997 2.804 9.611 6.555l0.027 0.070 31.925 86.739c10.132 27.295 35.952 46.392 66.233 46.392 0.433 0 0.865-0.004 1.296-0.012l-0.065 0.001 327.68-6.626c30.496-1.453 55.969-21.439 65.502-48.881l0.155-0.512 28.311-91.558c1.882-3.385 5.114-5.827 8.95-6.611l0.085-0.015h115.652c34.937-0.561 66.284-15.476 88.486-39.088l0.060-0.065c22.002-22.818 35.558-53.912 35.558-88.171 0-0.767-0.007-1.533-0.020-2.297l0.002 0.115-9.035-433.092c-0.102-35.025-15.134-66.518-39.064-88.465l-0.089-0.080c-22.378-22.404-53.193-36.376-87.271-36.743l-0.070-0.001zM129.506 666.654c-0.007 0-0.016 0-0.025 0-36.594 0-66.259-29.665-66.259-66.259 0-0.635 0.009-1.269 0.027-1.9l-0.002 0.093-9.035-430.080c-0.007-0.359-0.011-0.783-0.011-1.207 0-36.718 29.599-66.524 66.238-66.858h0.032l771.012-15.661c0.362-0.007 0.788-0.011 1.215-0.011 36.174 0 65.577 28.989 66.247 65.003l0.001 0.063 9.035 433.092c0.007 0.371 0.012 0.809 0.012 1.248 0 36.083-28.583 65.49-64.343 66.815l-0.121 0.004h-115.652c-30.814 2.078-56.229 23.020-64.918 51.286l-0.137 0.516-27.708 90.353c-2.22 3.311-5.592 5.701-9.532 6.606l-0.105 0.020-330.089 6.626c-3.989-0.709-7.367-2.904-9.608-5.98l-0.030-0.043-31.322-89.148c-10.738-27.682-37.147-46.957-68.062-46.984h-115.655zM511.398 128.753h-6.024c-152.393 1.702-275.275 125.636-275.275 278.271 0 153.694 124.593 278.287 278.287 278.287s278.287-124.593 278.287-278.287c0-152.635-122.882-276.569-275.114-278.269l-0.161-0.001zM511.398 610.635c-56.851-0.292-108.287-23.235-145.792-60.257l0.022 0.022c-38.48-37.21-62.855-88.797-64.445-146.080l-0.006-0.292c-0.015-0.926-0.023-2.019-0.023-3.115 0-114.778 91.201-208.255 205.089-211.917l0.336-0.009c1.345-0.031 2.929-0.048 4.518-0.048 116.461 0 210.872 94.411 210.872 210.872 0 114.873-91.853 208.292-206.119 210.819l-0.235 0.004zM864.979 491.369c-33.267 0-60.235 26.968-60.235 60.235s26.968 60.235 60.235 60.235c33.267 0 60.235-26.968 60.235-60.235v0c0-33.267-26.968-60.235-60.235-60.235v0zM511.398 222.118h-4.216c-48.893 1.085-92.723 21.888-124.017 54.742l-0.068 0.072c-30.592 31.341-49.463 74.242-49.463 121.55 0 1.738 0.025 3.471 0.076 5.197l-0.006-0.253c2.341 96.321 80.978 173.51 177.645 173.51 98.138 0 177.694-79.556 177.694-177.694 0-50.113-20.744-95.381-54.114-127.684l-0.048-0.046c-31.512-30.56-74.543-49.399-121.974-49.399-0.53 0-1.060 0.002-1.59 0.007l0.081-0.001zM511.398 517.271c-63.433-3.829-113.427-56.208-113.427-120.264 0-30.067 11.014-57.56 29.228-78.667l-0.131 0.155c20.934-21.38 49.734-34.988 81.709-36.135l0.211-0.006c0.223-0.001 0.487-0.002 0.751-0.002 32.182 0 61.417 12.619 83.027 33.179l-0.050-0.048c21.907 20.585 35.688 49.6 36.14 81.837l0.001 0.083c0 0.036 0 0.079 0 0.122 0 64.627-50.89 117.369-114.783 120.339l-0.267 0.010z" />
<glyph unicode="&#xe91b;" glyph-name="Icons_informacion" d="M512-64c-282.77 0-512 229.23-512 512s229.23 512 512 512c282.77 0 512-229.23 512-512v0c-0.343-282.632-229.368-511.657-511.967-512h-0.033zM512 899.765c-249.503 0-451.765-202.262-451.765-451.765s202.262-451.765 451.765-451.765c249.503 0 451.765 202.262 451.765 451.765v0c0 249.503-202.262 451.765-451.765 451.765v0zM481.882 568.471h60.235v-361.412h-60.235v361.412zM481.882 688.941h60.235v-60.235h-60.235v60.235z" />
<glyph unicode="&#xe91c;" glyph-name="Icons_inicio" d="M813.176-64h-602.353c-49.901 0-90.353 40.452-90.353 90.353v0 568.019c0 0.040 0 0.087 0 0.134 0 8.55 3.711 16.233 9.611 21.527l0.027 0.024 361.412 336.113c5.458 4.736 12.632 7.623 20.48 7.623s15.022-2.887 20.519-7.656l-0.039 0.033 361.412-336.113c5.927-5.317 9.638-13.001 9.638-21.551 0-0.047 0-0.094 0-0.141v0.007-568.019c0-49.901-40.452-90.353-90.353-90.353v0zM180.706 581.12v-554.767c0-16.634 13.484-30.118 30.118-30.118v0h602.353c16.634 0 30.118 13.484 30.118 30.118v0 554.767l-331.294 307.802zM973.402 460.047l-461.402 428.875-461.402-428.875-40.96 44.574 481.882 447.548c5.458 4.736 12.632 7.623 20.48 7.623s15.022-2.887 20.519-7.656l-0.039 0.033 481.882-447.548zM632.471-64h-240.941c-16.634 0-30.118 13.484-30.118 30.118v0 240.941c0 83.168 67.421 150.588 150.588 150.588s150.588-67.421 150.588-150.588v0-240.941c0-16.634-13.484-30.118-30.118-30.118v0zM421.647-3.765h180.706v210.824c0 49.901-40.452 90.353-90.353 90.353s-90.353-40.452-90.353-90.353v0z" />
<glyph unicode="&#xe91d;" glyph-name="Icons_lista_de_deseos" d="M809.562-40.508c-5.088 0.053-9.854 1.386-14.005 3.691l0.151-0.077-283.708 149.384-283.708-149.384c-4.217-2.387-9.261-3.794-14.633-3.794-16.634 0-30.118 13.484-30.118 30.118 0 2.414 0.284 4.761 0.82 7.010l-0.041-0.205 56.621 314.428-231.906 224.075c-6.205 5.642-10.085 13.747-10.085 22.758 0 2.832 0.383 5.574 1.1 8.178l-0.051-0.216c3.773 10.819 13.13 18.77 24.529 20.46l0.168 0.020 318.645 46.381 141.553 287.322c5.521 9.409 15.587 15.626 27.106 15.626s21.585-6.217 27.026-15.479l0.080-0.147 141.553-287.322 317.44-46.381c11.566-1.71 20.924-9.661 24.631-20.265l0.066-0.215c0.828-2.651 1.305-5.7 1.305-8.86 0-8.552-3.494-16.287-9.133-21.857l-0.003-0.003-231.906-224.075 54.212-315.633c0.244-1.453 0.383-3.127 0.383-4.834 0-10.078-4.853-19.022-12.349-24.624l-0.081-0.058c-4.294-3.412-9.686-5.615-15.574-6.019l-0.088-0.005zM512 176.941c0.051 0 0.11 0.001 0.17 0.001 5.032 0 9.751-1.341 13.818-3.686l240.807-127.628-43.972 270.456c-0.344 1.673-0.541 3.597-0.541 5.566 0 8.232 3.441 15.661 8.962 20.927l0.012 0.011 197.572 192.753-272.264 39.153c-10.006 1.896-18.251 8.16-22.804 16.691l-0.085 0.175-121.675 248.169-120.471-246.965c-4.639-8.706-12.883-14.97-22.686-16.834l-0.203-0.032-272.866-39.153 197.572-192.753c5.533-5.277 8.974-12.705 8.974-20.938 0-1.969-0.197-3.892-0.572-5.751l0.031 0.185-46.381-271.059 243.953 127.699c3.654 1.898 7.979 3.012 12.563 3.012 0.030 0 0.061 0 0.091 0h-0.005z" />
<glyph unicode="&#xe91e;" glyph-name="Icons_listado" d="M150.588 658.824c-83.168 0-150.588 67.421-150.588 150.588s67.421 150.588 150.588 150.588c83.168 0 150.588-67.421 150.588-150.588v0c0-83.168-67.421-150.588-150.588-150.588v0zM150.588 899.765c-49.901 0-90.353-40.452-90.353-90.353s40.452-90.353 90.353-90.353c49.901 0 90.353 40.452 90.353 90.353v0c0 49.901-40.452 90.353-90.353 90.353v0zM150.588-64c-83.168 0-150.588 67.421-150.588 150.588s67.421 150.588 150.588 150.588c83.168 0 150.588-67.421 150.588-150.588v0c0-83.168-67.421-150.588-150.588-150.588v0zM150.588 176.941c-49.901 0-90.353-40.452-90.353-90.353s40.452-90.353 90.353-90.353c49.901 0 90.353 40.452 90.353 90.353v0c0 49.901-40.452 90.353-90.353 90.353v0zM150.588 297.412c-83.168 0-150.588 67.421-150.588 150.588s67.421 150.588 150.588 150.588c83.168 0 150.588-67.421 150.588-150.588v0c0-83.168-67.421-150.588-150.588-150.588v0zM150.588 538.353c-49.901 0-90.353-40.452-90.353-90.353s40.452-90.353 90.353-90.353c49.901 0 90.353 40.452 90.353 90.353v0c0 49.901-40.452 90.353-90.353 90.353v0zM391.529 839.529h602.353v-60.235h-602.353v60.235zM391.529 478.118h602.353v-60.235h-602.353v60.235zM391.529 116.706h602.353v-60.235h-602.353v60.235z" />
<glyph unicode="&#xe91f;" glyph-name="Icons_mapa" d="M513.205 104.056c-0.718-0.063-1.552-0.099-2.395-0.099-7.713 0-14.72 3.020-19.904 7.942l0.013-0.012c-140.348 139.746-427.671 426.466-259.012 686.080v0c60.286 98.197 167.082 162.703 288.944 162.703 7.482 0 14.908-0.243 22.269-0.722l-1.002 0.052c169.437-15.337 301.186-156.694 301.186-328.822 0-0.869-0.003-1.738-0.010-2.606l0.001 0.133c0-207.209-200.584-407.191-307.802-515.012-5.85-5.534-13.607-9.105-22.187-9.633l-0.1-0.005zM515.012 899.765c-98.299-2.799-183.752-55.288-232.417-133.135l-0.694-1.19c-134.927-207.812 97.581-456.584 230.099-588.499 106.014 105.412 271.059 281.299 271.059 451.765 0.007 0.711 0.011 1.551 0.011 2.392 0 140.132-106.812 255.317-243.463 268.58l-1.103 0.087zM512 459.445c-93.48 0-169.261 75.781-169.261 169.261s75.781 169.261 169.261 169.261c93.48 0 169.261-75.781 169.261-169.261v0c0-93.48-75.781-169.261-169.261-169.261v0zM512 737.732c-60.213 0-109.026-48.813-109.026-109.026s48.813-109.026 109.026-109.026c60.213 0 109.026 48.813 109.026 109.026v0c0 60.213-48.813 109.026-109.026 109.026v0zM993.882-64h-481.882v60.235h438.513l-75.896 198.776h-272.264v60.235h293.948c12.764-0.085 23.672-7.941 28.236-19.071l0.074-0.205 99.388-259.012c1.174-3.093 1.854-6.669 1.854-10.403 0-6.482-2.047-12.485-5.531-17.399l0.063 0.094c-5.355-8.065-14.399-13.309-24.668-13.309-0.646 0-1.287 0.021-1.922 0.062l0.087-0.004zM512-64h-481.882c-0.020 0-0.043 0-0.066 0-10.245 0-19.27 5.22-24.563 13.144l-0.068 0.107c-4.184 5.131-6.719 11.751-6.719 18.962 0 3.12 0.474 6.129 1.355 8.959l-0.057-0.213 99.991 260.216c4.638 11.334 15.546 19.19 28.3 19.275h293.357v-60.235h-272.264l-75.896-199.981h438.513z" />
<glyph unicode="&#xe920;" glyph-name="Icons_menu" d="M30.118 960h963.765v-60.235h-963.765v60.235zM30.118 478.118h963.765v-60.235h-963.765v60.235zM30.118-3.765h963.765v-60.235h-963.765v60.235z" />
<glyph unicode="&#xe921;" glyph-name="Icons_navegar" d="M555.972-64h-3.614c-12.921 1.814-23.163 11.447-25.864 23.892l-0.037 0.203-83.727 421.647-418.635 80.715c-12.74 2.566-22.46 12.898-24.079 25.753l-0.015 0.148c-0.090 0.881-0.141 1.904-0.141 2.938 0 12.204 7.116 22.745 17.425 27.702l0.184 0.080 963.765 440.922c3.529 1.532 7.64 2.423 11.958 2.423 8.509 0 16.209-3.459 21.772-9.048l0.001-0.001c7.059-5.677 11.538-14.313 11.538-23.995 0-4.39-0.921-8.565-2.58-12.343l0.077 0.197-438.513-963.765c-4.701-10.44-15.014-17.576-26.993-17.576-0.888 0-1.767 0.039-2.635 0.116l0.112-0.008zM127.699 502.814l346.353-69.271c11.922-2.323 21.169-11.57 23.461-23.305l0.030-0.186 69.271-346.353 366.231 805.346z" />
<glyph unicode="&#xe922;" glyph-name="Icons_noticias" d="M873.412-64h-783.059c-49.901 0-90.353 40.452-90.353 90.353v0 843.294c0 49.901 40.452 90.353 90.353 90.353v0h602.353c49.901 0 90.353-40.452 90.353-90.353v0-180.706h-60.235v180.706c0 16.634-13.484 30.118-30.118 30.118v0h-602.353c-16.634 0-30.118-13.484-30.118-30.118v0-843.294c0-16.634 13.484-30.118 30.118-30.118v0h783.059zM1024 86.588h-60.235v542.118c0 16.634-13.484 30.118-30.118 30.118v0h-150.588v-572.235h-60.235v602.353c0 16.634 13.484 30.118 30.118 30.118v0h180.706c49.901 0 90.353-40.452 90.353-90.353v0zM873.412-64c-83.168 0-150.588 67.421-150.588 150.588v0h60.235c0-49.901 40.452-90.353 90.353-90.353s90.353 40.452 90.353 90.353v0h60.235c0-83.168-67.421-150.588-150.588-150.588v0zM632.471 598.588h-481.882c-16.634 0-30.118 13.484-30.118 30.118v0 180.706c0 16.634 13.484 30.118 30.118 30.118v0h481.882c16.634 0 30.118-13.484 30.118-30.118v0-180.706c0-16.634-13.484-30.118-30.118-30.118v0zM180.706 658.824h421.647v120.471h-421.647zM152.998 497.995h481.882v-60.235h-481.882v60.235zM152.998 337.769h481.882v-60.235h-481.882v60.235zM152.998 176.941h481.882v-60.235h-481.882v60.235z" />
<glyph unicode="&#xe923;" glyph-name="Icons_ojo" d="M512 176.941c-2.384-0.033-5.198-0.052-8.017-0.052-204.125 0-385.092 99.156-497.36 251.93l-1.201 1.713-12.047 17.468 12.047 17.468c113.471 154.487 294.437 253.643 498.562 253.643 2.819 0 5.634-0.019 8.444-0.057l-0.427 0.005c2.384 0.033 5.198 0.052 8.017 0.052 204.125 0 385.092-99.156 497.36-251.93l1.201-1.713 12.047-17.468-12.047-17.468c-113.471-154.487-294.437-253.643-498.562-253.643-2.819 0-5.634 0.019-8.444 0.057l0.427-0.005zM67.464 448c103.295-128.981 260.762-210.87 437.355-210.87 2.525 0 5.046 0.017 7.563 0.050l-0.382-0.004c2.136-0.029 4.657-0.046 7.182-0.046 176.593 0 334.060 81.889 436.5 209.765l0.855 1.105c-103.295 128.981-260.762 210.87-437.355 210.87-2.525 0-5.046-0.017-7.563-0.050l0.382 0.004c-2.136 0.029-4.657 0.046-7.182 0.046-176.593 0-334.060-81.889-436.5-209.765l-0.855-1.105zM512 267.294c-149.564 0.342-270.717 121.495-271.059 271.026v0.033c-0.001 0.293-0.002 0.639-0.002 0.985 0 46.211 11.827 89.66 32.618 127.485l-0.692-1.374 53.007-28.311c-15.552-28.524-24.697-62.474-24.697-98.56 0-0.079 0-0.159 0-0.238v0.012c0-116.435 94.389-210.824 210.824-210.824s210.824 94.389 210.824 210.824v0c-0.185 36.84-9.529 71.457-25.867 101.744l0.568-1.151 53.007 28.913c20.367-37.496 32.394-82.081 32.527-129.465v-0.041c-0.342-149.564-121.495-270.717-271.026-271.059h-0.033z" />
<glyph unicode="&#xe924;" glyph-name="Icons_pin" d="M510.795-64c-0.385-0.020-0.837-0.032-1.29-0.032-7.289 0-13.875 3.011-18.581 7.856l-0.006 0.006c-168.659 169.261-513.807 514.409-310.212 823.416 71.802 116.842 198.921 193.586 343.965 193.586 9.106 0 18.141-0.302 27.096-0.898l-1.216 0.065c200.454-19.102 355.994-186.619 355.994-390.463 0-0.587-0.001-1.173-0.004-1.759v0.090c0-248.169-240.941-489.111-371.049-618.616-5.844-7.512-14.622-12.503-24.583-13.245l-0.114-0.007zM203.595 750.381l25.299-16.264c-168.659-256 122.88-564.405 283.106-725.233 128.904 128.904 334.306 345.751 334.306 557.176 0.003 0.552 0.005 1.205 0.005 1.859 0 173.79-133.091 316.495-302.91 331.751l-1.283 0.093c-5.713 0.339-12.394 0.533-19.12 0.533-124.173 0-232.951-65.918-293.248-164.671l-0.856-1.509zM512 367.887c-109.449 0-198.174 88.726-198.174 198.174s88.726 198.174 198.174 198.174c109.449 0 198.174-88.726 198.174-198.174v0c0-109.449-88.726-198.174-198.174-198.174v0zM512 704c-76.182 0-137.939-61.757-137.939-137.939s61.757-137.939 137.939-137.939c76.182 0 137.939 61.757 137.939 137.939v0c-0.341 76.044-61.895 137.598-137.906 137.939h-0.032z" />
<glyph unicode="&#xe925;" glyph-name="Icons_producto" d="M752.941-64h-481.882c-49.901 0-90.353 40.452-90.353 90.353v0 602.353c0 49.901 40.452 90.353 90.353 90.353v0h481.882c49.901 0 90.353-40.452 90.353-90.353v0-602.353c0-49.901-40.452-90.353-90.353-90.353v0zM271.059 658.824c-16.634 0-30.118-13.484-30.118-30.118v0-602.353c0-16.634 13.484-30.118 30.118-30.118v0h481.882c16.634 0 30.118 13.484 30.118 30.118v0 602.353c0 16.634-13.484 30.118-30.118 30.118v0zM713.186 517.873h-60.235v240.941c0 77.845-63.106 140.951-140.951 140.951s-140.951-63.106-140.951-140.951v0-240.941h-60.235v240.941c0 111.112 90.074 201.186 201.186 201.186s201.186-90.074 201.186-201.186v0zM210.824 187.181h602.353v-60.235h-602.353v60.235z" />
<glyph unicode="&#xe926;" glyph-name="Icons_promociones" d="M454.174-64c-0.007 0-0.016 0-0.025 0-25.426 0-48.432 10.365-65.023 27.099l-0.006 0.007-361.412 361.412c-16.756 16.599-27.131 39.615-27.131 65.054s10.375 48.455 27.124 65.047l0.007 0.007 477.064 478.268c16.504 16.738 39.43 27.106 64.778 27.106 0.097 0 0.194 0 0.291 0h361.397c0.361 0.005 0.786 0.008 1.213 0.008 50.566 0 91.558-40.992 91.558-91.558 0-0.426-0.003-0.852-0.009-1.277l0.001 0.065v-361.412c0-0.082 0-0.179 0-0.276 0-25.348-10.369-48.273-27.096-64.768l-477.676-477.676c-16.597-16.741-39.603-27.106-65.029-27.106-0.009 0-0.018 0-0.026 0h0.001zM569.826 899.765c-8.659-0.058-16.505-3.49-22.298-9.046l-478.257-478.257c-5.608-5.747-9.067-13.613-9.067-22.287s3.459-16.54 9.073-22.294l361.406-361.406c5.747-5.608 13.613-9.067 22.287-9.067s16.54 3.459 22.294 9.073l478.262 478.262c5.642 5.41 9.403 12.742 10.228 20.941l0.012 0.142v361.412c0.015 0.367 0.024 0.797 0.024 1.229 0 17.299-14.023 31.322-31.322 31.322-0.432 0-0.862-0.009-1.29-0.026l0.061 0.002h-361.412zM829.44 705.205c0-33.267-26.968-60.235-60.235-60.235s-60.235 26.968-60.235 60.235c0 33.267 26.968 60.235 60.235 60.235s60.235-26.968 60.235-60.235z" />
<glyph unicode="&#xe927;" glyph-name="Icons_refrescar" d="M157.816 460.649h-60.235c6.307 223.959 189.364 403.109 414.264 403.109 163.186 0 304.343-94.32 371.928-231.418l1.083-2.43-54.212-26.504c-58.672 119.289-179.334 199.935-318.831 199.935-191.569 0-347.616-152.089-353.982-342.109l-0.016-0.584zM512 32.979c-0.396-0.001-0.865-0.002-1.335-0.002-162.586 0-303.208 94.037-370.444 230.689l-1.078 2.423 54.212 26.504c58.665-119.311 179.337-199.974 318.85-199.974 191.371 0 347.293 151.775 353.961 341.52l0.017 0.609h60.235c-6.707-223.302-189.333-401.77-413.641-401.77-0.273 0-0.546 0-0.82 0.001h0.042zM127.699 431.736c-8.255 0.19-15.676 3.607-21.081 9.034l-97.582 97.582 42.165 42.767 76.499-76.499 76.499 76.499 42.767-42.767-97.581-97.581c-5.668-5.366-13.255-8.754-21.63-9.034l-0.054-0.001zM972.8 314.88l-76.499 76.499-76.499-76.499-42.767 42.767 97.581 97.581c5.459 5.502 13.023 8.909 21.384 8.909s15.925-3.406 21.382-8.907l97.583-97.583z" />
<glyph unicode="&#xe928;" glyph-name="Icons_reloj" d="M512-64c-282.77 0-512 229.23-512 512s229.23 512 512 512c282.77 0 512-229.23 512-512v0c-0.343-282.632-229.368-511.657-511.967-512h-0.033zM512 899.765c-249.503 0-451.765-202.262-451.765-451.765s202.262-451.765 451.765-451.765c249.503 0 451.765 202.262 451.765 451.765v0c0 249.503-202.262 451.765-451.765 451.765v0zM873.412 417.882h-361.412c-16.634 0-30.118 13.484-30.118 30.118v0 361.412h60.235v-331.294h331.294z" />
<glyph unicode="&#xe929;" glyph-name="Icons_subir" d="M993.882-64h-963.765c-16.634 0-30.118 13.484-30.118 30.118v0 783.059c0 16.634 13.484 30.118 30.118 30.118v0h240.941c16.634 0 30.118-13.484 30.118-30.118v0-150.588h210.824c16.634 0 30.118-13.484 30.118-30.118v0-150.588h210.824c16.634 0 30.118-13.484 30.118-30.118v0-150.588h210.824c16.634 0 30.118-13.484 30.118-30.118v0-240.941c0-16.634-13.484-30.118-30.118-30.118v0zM60.235-3.765h903.529v180.706h-210.824c-16.634 0-30.118 13.484-30.118 30.118v0 150.588h-210.824c-16.634 0-30.118 13.484-30.118 30.118v0 150.588h-210.824c-16.634 0-30.118 13.484-30.118 30.118v0 150.588h-180.706zM430.303 902.762l42.593 42.593 542.206-542.206-42.593-42.593-542.206 542.206zM475.859 676.894h-60.235v251.181c-0.068 0.754-0.108 1.631-0.108 2.517 0 16.301 13.214 29.515 29.515 29.515 0.886 0 1.763-0.039 2.629-0.115l-0.112 0.008h250.579v-60.235h-220.461z" />
<glyph unicode="&#xe92a;" glyph-name="Icons_telefono" d="M794.504-64c-57.256 1.241-111.319 13.526-160.594 34.799l2.777-1.067c-138.95 60.686-257.225 144.031-355.632 246.588l-0.359 0.376c-102.933 98.765-186.279 217.041-244.226 348.997l-2.739 6.994c-54.212 137.336-43.369 249.374 30.72 323.464l47.586 47.586c10.218 10.079 24.259 16.304 39.755 16.304s29.538-6.225 39.762-16.31l177.086-177.086c9.766-10.403 15.886-24.33 16.262-39.681l0.001-0.074c0-0.055 0-0.12 0-0.185 0-15.24-6.22-29.028-16.259-38.963l-92.165-92.165c-13.854-14.456 25.901-109.026 149.986-232.508v0c124.085-125.892 218.654-164.442 236.122-150.588l92.16 92.16c10.506 9.145 24.329 14.72 39.454 14.72s28.949-5.575 39.527-14.782l-0.073 0.062 177.092-177.092c10.079-10.218 16.304-24.259 16.304-39.755s-6.225-29.538-16.31-39.762l-47.58-47.58c-40.989-39.991-97.086-64.659-158.945-64.659-3.416 0-6.815 0.075-10.195 0.224l0.481-0.017zM151.793 899.765l-44.574-44.574c-70.475-72.282-46.984-181.308-17.468-260.216 57.393-131.030 136.268-242.516 233.311-335.13l0.402-0.38c92.993-97.444 204.479-176.319 328.948-231.135l6.562-2.578c78.908-31.322 187.934-53.007 258.409 17.468l44.574 44.574-171.068 171.068-89.148-89.148c-30.118-30.118-80.715-25.299-149.384 15.059-63.7 39.568-118.825 84.158-167.842 134.705l-0.214 0.222c-51.025 49.391-95.817 104.717-133.403 165l-2.126 3.659c-40.358 68.668-45.176 120.471-15.059 149.384l89.148 89.148z" />
<glyph unicode="&#xe92b;" glyph-name="Icons_ticket" d="M249.374 56.471h-138.541c-0.001 0-0.001 0-0.002 0-61 0-110.49 49.279-110.831 110.198v562.63c0.342 60.952 49.832 110.231 110.831 110.231 0.001 0 0.001 0 0.002 0h138.541c16.634 0 30.118-13.484 30.118-30.118v0-722.824c0-16.634-13.484-30.118-30.118-30.118v0zM110.833 779.294c-27.602-0.327-49.931-22.445-50.596-49.933l-0.001-0.062v-562.598c0.336-27.808 22.789-50.262 50.566-50.597h108.456v663.191zM963.765 56.471h-714.391c-16.499 0.331-29.787 13.619-30.117 30.086v722.855c0.331 16.499 13.619 29.787 30.086 30.117h714.422c0.112 0.001 0.244 0.001 0.376 0.001 27.612 0 49.995-22.384 49.995-49.995 0-13.9-5.672-26.474-14.828-35.536l-0.004-0.004-35.539-34.936 37.346-37.346c13.735-13.825 22.224-32.876 22.224-53.911s-8.489-40.085-22.228-53.915l0.004 0.004-37.346-35.539 37.346-36.744c13.77-13.921 22.277-33.073 22.277-54.212s-8.507-40.29-22.284-54.219l0.007 0.007-37.346-35.539 37.346-37.346c13.735-13.825 22.224-32.876 22.224-53.911s-8.489-40.085-22.228-53.915l0.004 0.004-37.346-35.539 33.129-33.129c10.302-9.199 16.757-22.518 16.757-37.346 0-27.573-22.321-49.933-49.88-49.995h-0.006zM279.492 116.706h658.372l-24.696 24.696c-8.518 8.685-13.775 20.594-13.775 33.732s5.257 25.047 13.783 33.739l46.373 46.373c2.921 2.714 4.76 6.558 4.819 10.832v0.011c0 0.042 0.001 0.093 0.001 0.143 0 4.439-1.847 8.447-4.814 11.297l-0.005 0.005-45.779 46.381c-8.482 8.589-13.721 20.398-13.721 33.431s5.239 24.841 13.726 33.435l46.376 46.376c2.91 2.938 4.708 6.981 4.708 11.445s-1.798 8.507-4.71 11.446l-45.778 45.778c-8.518 8.685-13.775 20.594-13.775 33.732s5.257 25.047 13.783 33.739l46.373 46.373c1.926 2.573 3.085 5.818 3.085 9.333 0 0.532-0.026 1.057-0.078 1.575l0.005-0.065c-0.059 4.285-1.898 8.128-4.809 10.834l-0.009 0.009-45.779 46.381c-8.482 8.589-13.721 20.398-13.721 33.431s5.239 24.841 13.726 33.435l24.691 24.691h-658.372z" />
<glyph unicode="&#xe92c;" glyph-name="Icons_twitter" d="M333.101 8.282c-119.392 0.023-230.208 36.723-321.799 99.445l1.95-1.261c-8.003 5.495-13.183 14.596-13.183 24.906 0 16.634 13.484 30.118 30.118 30.118 1.25 0 2.481-0.076 3.691-0.224l-0.145 0.014c12.511-1.518 26.998-2.384 41.686-2.384 62.781 0 121.867 15.823 173.486 43.699l-1.939-0.957c-66.368 26.735-116.643 81.354-136.914 148.947l-0.423 1.642c-0.893 2.72-1.409 5.851-1.409 9.103 0 7.601 2.816 14.545 7.462 19.845l-0.030-0.034 4.819 4.216c-50.26 44.312-81.826 108.813-81.92 180.689v0.017c0.235 11.324 6.116 21.226 14.934 27.029l0.125 0.077c4.604 3.048 10.168 5.014 16.161 5.416l0.102 0.005c-18.583 33.365-29.523 73.186-29.523 115.563 0 0.666 0.003 1.332 0.008 1.997l-0.001-0.102c-0.002 0.35-0.003 0.763-0.003 1.177 0 43.774 11.389 84.888 31.364 120.54l-0.642-1.246c4.96 8.529 13.777 14.342 24 15.054l0.094 0.005c0.267 0.008 0.581 0.013 0.895 0.013 9.915 0 18.733-4.697 24.35-11.988l0.053-0.072c83.342-108.468 206.18-183.011 346.646-202.088l2.719-0.302c0 4.216 0 9.035 0 13.854-0.025 1.269-0.039 2.766-0.039 4.266 0 126.73 101.391 229.779 227.479 232.455l0.249 0.004c0.43 0.003 0.939 0.005 1.449 0.005 58.922 0 112.489-22.927 152.266-60.347l-0.115 0.107c37.904 9.385 71.248 23.88 101.378 42.987l-1.387-0.822c4.792 3.361 10.745 5.372 17.167 5.372s12.375-2.010 17.264-5.436l-0.097 0.064c7.396-5.429 12.143-14.091 12.143-23.861 0-3.092-0.476-6.074-1.358-8.875l0.057 0.209c-6.071-18.543-13.208-34.478-21.769-49.496l0.686 1.308h6.024c3.827 1.942 8.345 3.080 13.128 3.080 8.948 0 16.966-3.982 22.378-10.27l0.033-0.039c3.673-5.001 5.877-11.278 5.877-18.071s-2.205-13.070-5.937-18.156l0.060 0.086c-25.947-40.695-57.123-75.322-93.133-104.164l-0.834-0.646v-12.047c3.012-305.995-218.654-620.424-589.704-620.424zM146.372 104.056c55.219-22.488 119.283-35.539 186.396-35.539 0.117 0 0.234 0 0.352 0h-0.018c333.101 0 532.48 283.708 532.48 558.381v25.901c-0.024 0.442-0.037 0.96-0.037 1.481 0 9.745 4.722 18.386 12.003 23.761l0.081 0.057c9.403 7.724 17.846 15.403 25.89 23.48l0.011 0.012-21.082-3.614c-1.185-0.165-2.554-0.26-3.945-0.26-16.634 0-30.118 13.484-30.118 30.118 0 10.731 5.612 20.151 14.061 25.485l0.124 0.073c9.939 6.587 18.589 13.324 26.696 20.651l-0.192-0.171c-14.456-4.216-28.311-7.831-43.369-10.842-1.924-0.447-4.133-0.703-6.402-0.703-8.681 0-16.486 3.747-21.887 9.713l-0.022 0.025c-29.567 33.606-72.482 54.86-120.373 55.416l-0.098 0.001c-93.133-2.992-167.494-79.208-167.494-172.792 0-1.3 0.014-2.597 0.043-3.891l-0.003 0.193c0.041-14.55 1.796-28.67 5.072-42.195l-0.253 1.235c0.36-1.783 0.567-3.833 0.567-5.93 0-7.614-2.717-14.593-7.234-20.022l0.041 0.051c-5.776-6.666-14.255-10.858-23.713-10.858-0.346 0-0.691 0.006-1.034 0.017l0.050-0.001c-157.496 9.871-296.774 80.599-395.958 188.708l-0.39 0.431c-3.827-13.546-6.028-29.102-6.028-45.172 0-0.425 0.002-0.85 0.005-1.274v0.065c-0.001-0.238-0.002-0.519-0.002-0.8 0-60.23 29.467-113.578 74.771-146.414l0.525-0.362c7.793-5.766 12.79-14.925 12.79-25.252 0-3.24-0.492-6.365-1.405-9.304l0.059 0.222c-3.918-12.017-15.023-20.548-28.12-20.548-0.703 0-1.4 0.025-2.091 0.073l0.093-0.005c-18.98 0.821-36.911 3.846-54.005 8.833l1.601-0.4c15.172-64.012 64.788-113.426 127.749-128.075l1.155-0.226c13.425-3.245 23.364-14.822 24.091-28.836l0.003-0.076c0.002-0.129 0.003-0.28 0.003-0.433 0-13.849-9.348-25.516-22.079-29.033l-0.212-0.050c-14.503-4.327-31.362-7.334-48.747-8.401l-0.646-0.032c28.697-47.017 79.234-78.236 137.154-79.507l0.182-0.003c12.79-0.543 23.514-8.828 27.641-20.266l0.067-0.214c1.095-2.994 1.728-6.45 1.728-10.054 0-9.243-4.164-17.513-10.718-23.038l-0.045-0.037c-53.912-44.925-120.328-76.669-193.279-89.392l-2.486-0.359z" />
<glyph unicode="&#xe92d;" glyph-name="Icons_ubicacion" d="M512-64c-282.77 0-512 229.23-512 512s229.23 512 512 512c282.77 0 512-229.23 512-512v0c-0.343-282.632-229.368-511.657-511.967-512h-0.033zM512 899.765c-249.503 0-451.765-202.262-451.765-451.765s202.262-451.765 451.765-451.765c249.503 0 451.765 202.262 451.765 451.765v0c0 249.503-202.262 451.765-451.765 451.765v0zM512 86.588c-199.602 0-361.412 161.81-361.412 361.412s161.81 361.412 361.412 361.412c199.602 0 361.412-161.81 361.412-361.412v0c0-199.602-161.81-361.412-361.412-361.412v0zM512 749.176c-166.335 0-301.176-134.841-301.176-301.176s134.841-301.176 301.176-301.176c166.335 0 301.176 134.841 301.176 301.176v0c0 166.335-134.841 301.176-301.176 301.176v0z" />
<glyph unicode="&#xe92e;" glyph-name="Icons_usuario" d="M646.927-64c-39.126 0.22-72.42 24.949-85.328 59.602l-0.207 0.633-55.416 157.214-28.311-60.235c-3.481-6.419-7.481-11.956-12.093-16.916l0.046 0.050c-1.616-2.973-3.414-5.539-5.464-7.88l0.042 0.049-92.762-102.4c-16.635-18.573-40.691-30.206-67.464-30.206-49.949 0-90.441 40.492-90.441 90.441 0 23.177 8.718 44.317 23.053 60.321l-0.076-0.086 87.341 97.581 71.68 148.781v106.616h-3.614l-47.586-81.92c-15.725-26.732-44.35-44.391-77.099-44.391-15.926 0-30.876 4.176-43.816 11.493l0.444-0.231c-20.701 11.765-35.936 31.126-42.027 54.201l-0.138 0.613c-2.052 7.105-3.232 15.266-3.232 23.703 0 16.583 4.558 32.101 12.491 45.369l-0.224-0.404 60.235 104.207c2.322 4.285 5.349 7.889 8.967 10.789l0.069 0.053c3.163 4.489 6.528 8.428 10.222 12.030l0.018 0.017 7.831 6.024c4.35 3.964 9.304 7.379 14.683 10.070l0.376 0.17 142.155 67.464c21.126 18.702 49.074 30.122 79.689 30.122 0.361 0 0.721-0.002 1.082-0.005h-0.055c66.534 0 120.471-53.937 120.471-120.471v0-230.701l99.388-281.299c3.2-8.873 5.050-19.112 5.050-29.783 0-39.191-24.952-72.554-59.836-85.069l-0.63-0.197c-8.762-3.392-18.9-5.377-29.497-5.421h-0.019zM510.193 261.873v0c12.227-0.771 22.415-8.73 26.436-19.669l0.067-0.209 79.511-225.882c4.32-11.684 15.364-19.862 28.318-19.862 3.671 0 7.188 0.657 10.441 1.859l-0.209-0.068c11.905 4.412 20.236 15.671 20.236 28.876 0 3.461-0.572 6.787-1.627 9.891l0.064-0.216-97.581 281.299s0 0 0 3.614c-0.273 1.539-0.43 3.311-0.43 5.12s0.156 3.581 0.456 5.304l-0.026-0.184v236.725c0 33.267-26.968 60.235-60.235 60.235v0c-0.103 0.001-0.226 0.001-0.348 0.001-16.547 0-31.536-6.672-42.423-17.473l0.004 0.004c-2.385-2.422-5.172-4.439-8.255-5.945l-0.178-0.079-152.395-69.873-4.819-4.216-6.024-7.228-4.819-4.819-60.235-101.195c-1.267-3.405-2.001-7.339-2.001-11.445s0.733-8.039 2.076-11.678l-0.075 0.234c2.347-7.989 7.508-14.521 14.311-18.592l0.145-0.081c4.243-2.424 9.325-3.854 14.74-3.854 11.186 0 20.948 6.098 26.142 15.152l0.078 0.147 48.791 90.353c3.032 5.335 7.588 9.503 13.073 11.975l0.179 0.072 55.416 25.901c4.185 2.276 9.164 3.614 14.456 3.614s10.272-1.338 14.619-3.695l-0.162 0.080c8.372-5.431 13.836-14.725 13.854-25.296v-163.241c0.571-2.17 0.899-4.661 0.899-7.228s-0.328-5.058-0.944-7.433l0.045 0.205-79.511-158.419c-1.247-2.789-2.866-5.179-4.829-7.238l0.010 0.010-89.751-101.195c-6.403-5.554-10.429-13.702-10.429-22.791 0-16.634 13.484-30.118 30.118-30.118 10.298 0 19.388 5.168 24.819 13.052l0.066 0.101 92.762 103.605s0 0 0 3.614l6.626 7.831 60.235 123.482c5.010 10.084 15.239 16.892 27.058 16.892 0.44 0 0.879-0.009 1.314-0.028l-0.062 0.002zM707.162 367.285c-16.488 0.262-31.833 4.931-44.976 12.875l0.402-0.225s-3.012 0-7.831 3.012l-68.066 41.562 31.322 53.609 68.066-40.96s0 0 3.614 0c5.236-3.4 11.641-5.422 18.517-5.422 0.055 0 0.109 0 0.164 0h-0.008l120.471 7.228c15.867 0.981 28.365 14.090 28.365 30.118 0 16.663-13.508 30.172-30.172 30.172-0.636 0-1.267-0.020-1.893-0.058l0.086 0.004-102.4-10.24c-0.417-0.019-0.907-0.030-1.399-0.030-5.909 0-11.451 1.576-16.227 4.33l0.157-0.084-120.471 74.089 31.322 51.802 113.242-69.271 92.762 6.024c2.018 0.163 4.37 0.255 6.743 0.255 47.63 0 86.536-37.353 89.022-84.363l0.009-0.221c0.112-1.689 0.176-3.662 0.176-5.65 0-47.963-37.125-87.256-84.207-90.709l-120.769-7.246zM511.398 719.059c-32.018 0.124-61.070 12.719-82.573 33.177l0.050-0.047c-23.002 20.808-37.393 50.767-37.393 84.087 0 1.144 0.017 2.285 0.051 3.421l-0.004-0.167c0.299 32.096 13.102 61.145 33.766 82.558l-0.034-0.036c20.852 22.833 50.539 37.295 83.611 37.946l0.116 0.002c1.634 0.083 3.547 0.131 5.472 0.131 31.773 0 60.523-12.948 81.259-33.855l0.008-0.008c21.87-21.136 35.751-50.418 36.739-82.943l0.004-0.181c0.198-2.522 0.311-5.461 0.311-8.426 0-30.035-11.57-57.368-30.496-77.785l0.068 0.074c-21.339-23.355-51.928-37.948-85.926-37.948-0.074 0-0.148 0-0.222 0h0.012zM511.398 899.765v0c-16.614-0.413-31.499-7.491-42.142-18.649l-0.023-0.024c-10.602-10.684-17.229-25.327-17.468-41.517l-0.001-0.046c0-0.084-0.001-0.184-0.001-0.284 0-16.115 6.954-30.606 18.025-40.635l0.046-0.041c10.99-11.825 26.612-19.218 43.961-19.275h0.011c16.804 0.037 31.864 7.467 42.108 19.209l0.057 0.067c10.063 10.125 16.283 24.079 16.283 39.486 0 0.518-0.007 1.035-0.021 1.55l0.002-0.076c-0.241 16.835-7.353 31.964-18.649 42.745l-0.024 0.022c-10.127 10.758-24.459 17.46-40.356 17.468h-0.001z" />
<glyph unicode="&#xe92f;" glyph-name="Icons_web" d="M512-64c-282.77 0-512 229.23-512 512s229.23 512 512 512c282.77 0 512-229.23 512-512v0c-0.343-282.632-229.368-511.657-511.967-512h-0.033zM512 899.765c-249.503 0-451.765-202.262-451.765-451.765s202.262-451.765 451.765-451.765c249.503 0 451.765 202.262 451.765 451.765v0c0 249.503-202.262 451.765-451.765 451.765v0zM481.882 929.882h60.235v-963.765h-60.235v963.765zM512-64c-193.355 0-281.299 265.638-281.299 512-0.138 5.664-0.217 12.335-0.217 19.026 0 117.344 24.227 229.030 67.952 330.329l-2.079-5.411c50.598 107.821 125.289 168.056 215.642 168.056v-60.235c-145.167 0-221.064-227.087-221.064-451.765s75.896-451.765 221.064-451.765zM512-64v60.235c81.92 0 133.12 72.282 161.431 133.12 38.179 89.843 60.37 194.341 60.37 304.021 0 5.142-0.049 10.273-0.146 15.392l0.012-0.768c-0.602 224.678-76.499 451.765-221.666 451.765v60.235c193.355 0 281.299-265.638 281.299-512s-87.944-512-281.299-512zM30.118 478.118h963.765v-60.235h-963.765v60.235zM511.398 641.958c-139.503 1.019-271.675 31.298-391.038 84.99l6.135-2.468 23.492 54.814c106.151-49.329 230.421-78.106 361.412-78.106s255.261 28.777 366.833 80.353l-5.421-2.248 24.094-55.416c-113.431-51.311-245.89-81.421-385.326-81.919l-0.18-0.001zM149.986 116.706l-23.492 55.416c112.963 51.946 245.095 82.236 384.301 82.236s271.338-30.29 390.164-84.638l-5.863 2.402-24.094-55.416c-105.96 48.783-229.912 77.23-360.508 77.23s-254.548-28.447-365.998-79.482l5.489 2.252z" />
<glyph unicode="&#xe930;" glyph-name="Icons_x" d="M9.028 908.428l42.593 42.593 963.875-963.875-42.593-42.593-963.875 963.875zM9.028-12.428l963.875 963.875 42.593-42.593-963.875-963.875-42.593 42.593z" />
<glyph unicode="&#xe931;" glyph-name="Icons-39" d="M933.647-64h-843.294c-49.901 0-90.353 40.452-90.353 90.353v0 843.294c0 49.901 40.452 90.353 90.353 90.353v0h843.294c49.901 0 90.353-40.452 90.353-90.353v0-843.294c0-49.901-40.452-90.353-90.353-90.353v0zM90.353 899.765c-16.634 0-30.118-13.484-30.118-30.118v0-843.294c0-16.634 13.484-30.118 30.118-30.118v0h843.294c16.634 0 30.118 13.484 30.118 30.118v0 843.294c0 16.634-13.484 30.118-30.118 30.118v0zM633.073 465.468c-71.265 0.342-128.904 58.192-128.904 129.504 0 71.524 57.982 129.506 129.506 129.506s129.505-57.981 129.506-129.504v0c0 0 0-0.001 0-0.001 0-71.524-57.982-129.506-129.506-129.506-0.212 0-0.423 0.001-0.635 0.002h0.033zM633.073 664.245c-37.997-0.341-68.668-31.223-68.668-69.268 0-38.257 31.013-69.271 69.271-69.271s69.269 31.012 69.271 69.268v0c-0.341 38.33-31.492 69.271-69.87 69.271-0.001 0-0.002 0-0.003 0v0zM980.028 146.221l-275.275 140.951-177.694-103.605c-4.37-2.613-9.64-4.158-15.27-4.158-10.819 0-20.305 5.704-25.616 14.27l-0.074 0.129-157.816 262.024-275.878-301.176-44.574 40.96 301.176 333.101c5.385 7.847 14.305 12.927 24.413 12.927 12.952 0 23.956-8.343 27.93-19.948l0.062-0.208 163.238-271.059 166.852 96.979c4.185 2.276 9.164 3.614 14.456 3.614s10.272-1.338 14.619-3.695l-0.162 0.080 289.732-148.781z" />
<glyph unicode="&#xe932;" glyph-name="Icons-40" d="M150.588 56.471c-0.183-0.004-0.399-0.007-0.616-0.007-5.564 0-10.76 1.571-15.17 4.295l0.124-0.072c-8.614 5.565-14.28 15.053-14.456 25.875v722.85c0.177 10.848 5.842 20.336 14.334 25.827l0.123 0.074c4.185 2.276 9.164 3.614 14.456 3.614s10.272-1.338 14.619-3.695l-0.162 0.080 722.824-361.412c10.137-4.991 16.99-15.248 16.99-27.106s-6.852-22.115-16.813-27.027l-0.177-0.079-722.824-361.412c-3.253-1.198-7.009-1.89-10.927-1.89-0.818 0-1.629 0.030-2.432 0.090l0.107-0.006zM180.706 760.621v-625.242l625.242 312.621z" />
<glyph unicode="&#xe933;" glyph-name="Icons-41" d="M555.972-64c-8.474 0.021-16.139 3.471-21.684 9.034l-184.923 184.923c-5.574 5.741-9.010 13.583-9.010 22.229 0 4.365 0.876 8.526 2.462 12.316l-0.078-0.211 60.235 137.336c1.876 3.726 2.974 8.121 2.974 12.772 0 8.244-3.45 15.682-8.985 20.949l-0.012 0.011c-5.362 5.474-12.83 8.868-21.091 8.868-4.593 0-8.941-1.049-12.817-2.921l0.176 0.077-137.336-60.235c-3.579-1.508-7.74-2.384-12.106-2.384-8.645 0-16.488 3.436-22.236 9.018l-182.505 182.505c-5.821 5.599-9.437 13.454-9.437 22.153 0 1.749 0.146 3.464 0.427 5.133l-0.025-0.18c1.569 9.81 7.992 17.83 16.683 21.614l0.183 0.071 964.367 440.922c3.529 1.532 7.64 2.423 11.958 2.423 8.509 0 16.209-3.459 21.772-9.048l0.001-0.001c7.059-5.677 11.538-14.313 11.538-23.995 0-4.39-0.921-8.565-2.58-12.343l0.077 0.197-438.513-963.765c-4.032-8.74-11.965-15.082-21.503-16.838l-0.181-0.028zM406.588 158.268l139.746-140.348 386.711 851.125-851.125-386.711 140.348-139.746 120.471 53.609c11.723 6.010 25.577 9.533 40.253 9.533 49.568 0 89.751-40.183 89.751-89.751 0-14.676-3.523-28.529-9.768-40.761l0.235 0.508z" />
<glyph unicode="&#xe934;" glyph-name="Icons-42" d="M813.176 116.706h-60.235v60.235h60.235c83.168 0 150.588 67.421 150.588 150.588s-67.421 150.588-150.588 150.588v0c-9.856-0.081-19.412-1.174-28.627-3.179l0.918 0.168c-2.295-0.602-4.93-0.948-7.646-0.948-5.597 0-10.852 1.468-15.399 4.041l0.156-0.081c-6.362 4.674-10.785 11.667-12.026 19.709l-0.021 0.168c-8.008 56.413-46.684 102.126-98.344 120.153l-1.044 0.317c-11.216 4.163-19.295 14.259-20.47 26.376l-0.010 0.128c-7.48 108.987-97.723 194.563-207.953 194.563-0.374 0-0.747-0.001-1.12-0.003h0.057c-116.435 0-210.824-94.389-210.824-210.824v0s0-4.216 0-6.024v-9.035c0.042-0.596 0.066-1.292 0.066-1.994 0-12.759-7.934-23.664-19.137-28.053l-0.205-0.071c-78.359-31.929-132.585-107.516-132.585-195.769 0-116.435 94.389-210.824 210.824-210.824 0.447 0 0.894 0.001 1.341 0.004h-0.069v-60.235c-149.564 0.342-270.717 121.495-271.059 271.026v0.033c0 105.289 60.706 196.4 149.027 240.24l1.561 0.701c0.342 149.564 121.495 270.717 271.026 271.059h0.033c0.444 0.003 0.969 0.004 1.495 0.004 134.652 0 246.115-99.287 265.171-228.645l0.176-1.458c55.49-25.064 97.274-72.165 114.668-129.841l0.381-1.471h9.638c116.435 0 210.824-94.389 210.824-210.824s-94.389-210.824-210.824-210.824v0zM481.882 448h60.235v-421.647h-60.235v421.647zM671.624 246.212l-159.624 159.021-159.624-159.021-42.165 42.165 180.706 180.706c5.288 5.624 12.776 9.127 21.082 9.127s15.795-3.503 21.068-9.112l0.014-0.015 180.706-180.706z" />
<glyph unicode="&#xe935;" glyph-name="Icons-43" d="M933.647-64h-843.294c-49.901 0-90.353 40.452-90.353 90.353v0 542.118c0 16.634 13.484 30.118 30.118 30.118v0h963.765c16.634 0 30.118-13.484 30.118-30.118v0-542.118c0-49.901-40.452-90.353-90.353-90.353v0zM60.235 538.353v-512c0-16.634 13.484-30.118 30.118-30.118v0h843.294c16.634 0 30.118 13.484 30.118 30.118v0 512zM993.882 538.353h-963.765c-16.634 0-30.118 13.484-30.118 30.118v0 180.706c1.020 83.385 68.854 150.588 152.385 150.588 0.004 0 0.007 0 0.011 0h297.562c1.004 0.024 2.187 0.037 3.373 0.037 72.871 0 133.796-51.146 148.835-119.498l0.187-1.010h331.294c49.901 0 90.353-40.452 90.353-90.353v0-120.471c0-16.634-13.484-30.118-30.118-30.118v0zM60.235 598.588h903.529v90.353c0 16.634-13.484 30.118-30.118 30.118v0h-361.412c-16.634 0-30.118 13.484-30.118 30.118v0c-1.339 49.985-42.020 90.034-92.129 90.353h-297.593c-50.14-0.319-90.821-40.368-92.157-90.229l-0.003-0.124zM602.353 749.176v0z" />
<glyph unicode="&#xe936;" glyph-name="Icons-44" d="M933.647-64h-843.294c-49.901 0-90.353 40.452-90.353 90.353v0 602.353c0 49.901 40.452 90.353 90.353 90.353v0h843.294c49.901 0 90.353-40.452 90.353-90.353v0-602.353c0-49.901-40.452-90.353-90.353-90.353v0zM90.353 658.824c-16.634 0-30.118-13.484-30.118-30.118v0-602.353c0-16.634 13.484-30.118 30.118-30.118v0h843.294c16.634 0 30.118 13.484 30.118 30.118v0 602.353c0 16.634-13.484 30.118-30.118 30.118v0zM512 176.941c-0.18-0.004-0.392-0.006-0.605-0.006-6.618 0-12.705 2.271-17.526 6.076l0.060-0.046-481.882 361.412 36.141 48.188 463.812-348.16 463.812 348.16 36.141-48.188-481.882-361.412c-4.761-3.759-10.848-6.030-17.466-6.030-0.213 0-0.425 0.002-0.636 0.007l0.031-0.001zM481.882 929.882h60.235v-180.706h-60.235v180.706zM663.793 869.647h60.235v-120.471h-60.235v120.471zM299.972 869.647h60.235v-120.471h-60.235v120.471z" />
<glyph unicode="&#xe937;" d="M512.602 56.471h-21.685c-207.158 11.662-370.729 182.493-370.729 391.529 0 216.558 175.555 392.113 392.113 392.113 7.522 0 14.995-0.212 22.412-0.63l-1.028 0.046-3.614-60.235c-5.245 0.297-11.382 0.466-17.558 0.466-182.969 0-331.294-148.325-331.294-331.294 0-85.030 32.034-162.578 84.691-221.235l-0.272 0.308c56.644-64.182 137.46-105.892 228.063-110.797l0.831-0.036c5.188-0.29 11.258-0.455 17.366-0.455 176.893 0 321.464 138.386 331.356 312.803l0.040 0.875h60.235c-10.535-207.984-181.374-372.724-390.855-373.459h-0.073z" />
<glyph unicode="&#xe938;" d="M472.847 667.256l-42.767 42.165 99.991 99.991-99.991 99.388 42.767 42.165 120.471-120.471c5.36-5.523 8.664-13.068 8.664-21.384s-3.304-15.86-8.671-21.391l0.007 0.008z" />
<glyph unicode="&#xe939;" d="M618.616 297.412l-127.699 129.506c-5.567 5.184-9.037 12.555-9.037 20.737 0 0.121 0.001 0.243 0.002 0.364v-0.018 180.706h60.235v-168.056l120.471-120.471z" />
<glyph unicode="&#xe93a;" glyph-name="Icons-46" d="M813.176-64h-602.353c-49.901 0-90.353 40.452-90.353 90.353v0 481.882c0 49.901 40.452 90.353 90.353 90.353v0h602.353c49.901 0 90.353-40.452 90.353-90.353v0-481.882c0-49.901-40.452-90.353-90.353-90.353v0zM210.824 538.353c-16.634 0-30.118-13.484-30.118-30.118v0-481.882c0-16.634 13.484-30.118 30.118-30.118v0h602.353c16.634 0 30.118 13.484 30.118 30.118v0 481.882c0 16.634-13.484 30.118-30.118 30.118v0zM730.654 568.471h-60.235v172.875c0 87.492-70.927 158.419-158.419 158.419s-158.419-70.927-158.419-158.419v0-172.875h-60.235v172.875c0 120.759 97.895 218.654 218.654 218.654s218.654-97.895 218.654-218.654v0zM361.412 272.715h-60.235c3.745 113.498 96.652 204.082 210.716 204.082 83.090 0 154.952-48.067 189.299-117.912l0.55-1.239-54.212-26.504c-24.921 50.789-76.259 85.135-135.62 85.135-81.333 0-147.606-64.479-150.49-145.107l-0.007-0.263zM512 56.471c-83.359 0.147-155.321 48.788-189.195 119.21l-0.546 1.26 54.212 26.504c24.921-50.789 76.259-85.135 135.62-85.135 81.333 0 147.606 64.479 150.49 145.107l0.007 0.263h60.235c-2.032-114.87-95.629-207.209-210.793-207.209-0.011 0-0.022 0-0.033 0h0.002zM331.294 229.948l72.282 87.944h-144.565l72.282-87.944zM692.706 317.892l-72.282-87.944h144.565l-72.282 87.944z" />
<glyph unicode="&#xe93b;" d="M813.176-64h-602.353c-49.901 0-90.353 40.452-90.353 90.353v0 481.882c0 49.901 40.452 90.353 90.353 90.353v0h602.353c49.901 0 90.353-40.452 90.353-90.353v0-481.882c0-49.901-40.452-90.353-90.353-90.353v0zM210.824 538.353c-16.634 0-30.118-13.484-30.118-30.118v0-481.882c0-16.634 13.484-30.118 30.118-30.118v0h602.353c16.634 0 30.118 13.484 30.118 30.118v0 481.882c0 16.634-13.484 30.118-30.118 30.118v0z" />
<glyph unicode="&#xe93c;" d="M730.654 568.471h-60.235v172.875c0 87.492-70.927 158.419-158.419 158.419s-158.419-70.927-158.419-158.419v0-172.875h-60.235v172.875c0 120.759 97.895 218.654 218.654 218.654s218.654-97.895 218.654-218.654v0z" />
<glyph unicode="&#xe93d;" d="M512 116.706c-83.168 0-150.588 67.421-150.588 150.588s67.421 150.588 150.588 150.588c83.168 0 150.588-67.421 150.588-150.588v0c0-83.168-67.421-150.588-150.588-150.588v0zM512 357.647c-49.901 0-90.353-40.452-90.353-90.353s40.452-90.353 90.353-90.353c49.901 0 90.353 40.452 90.353 90.353v0c0 49.901-40.452 90.353-90.353 90.353v0z" />
<glyph unicode="&#xe93e;" glyph-name="Icons-48" d="M512.602-64h-30.72c-269.998 16.369-482.767 239.337-482.767 512 0 283.259 229.626 512.885 512.885 512.885 10.595 0 21.116-0.321 31.552-0.955l-1.434 0.070-5.421-60.235c-7.165 0.406-15.549 0.637-23.986 0.637-249.503 0-451.765-202.262-451.765-451.765s202.262-451.765 451.765-451.765c240.591 0 437.256 188.071 450.998 425.218l0.056 1.214 60.235-5.421c-16.972-269.338-239.343-481.417-511.351-481.882h-0.047z" />
<glyph unicode="&#xe93f;" glyph-name="Icons-49" d="M512-64c-282.77 0-512 229.23-512 512s229.23 512 512 512c282.77 0 512-229.23 512-512v0c-0.343-282.632-229.368-511.657-511.967-512h-0.033zM512 899.765c-249.503 0-451.765-202.262-451.765-451.765s202.262-451.765 451.765-451.765c249.503 0 451.765 202.262 451.765 451.765v0c0 249.503-202.262 451.765-451.765 451.765v0zM421.647 257.054c-0.054 0-0.117-0.001-0.181-0.001-8.122 0-15.493 3.215-20.91 8.442l0.009-0.009-150.588 145.167 42.165 43.369 129.506-124.687 310.814 301.176 42.165-43.369-333.101-321.656c-5.137-5.041-12.116-8.219-19.837-8.432l-0.041-0.001z" />
<glyph unicode="&#xe940;" glyph-name="Icons-50" d="M993.882-64h-963.765c-10.848 0.177-20.336 5.842-25.827 14.334l-0.074 0.123c-2.276 4.185-3.614 9.164-3.614 14.456s1.338 10.272 3.695 14.619l-0.080-0.162 481.882 963.765c5.521 9.409 15.587 15.626 27.106 15.626s21.585-6.217 27.026-15.479l0.080-0.147 481.882-963.765c2.276-4.185 3.614-9.164 3.614-14.456s-1.338-10.272-3.695-14.619l0.080 0.162c-5.648-8.78-15.369-14.513-26.43-14.513-0.662 0-1.319 0.021-1.97 0.061l0.089-0.004zM78.908-3.765h866.184l-433.092 866.184zM481.882 448h60.235v-361.412h-60.235v361.412zM481.882 568.471h60.235v-60.235h-60.235v60.235z" />
<glyph unicode="&#xe941;" glyph-name="Icons-51" d="M512-64c-282.77 0-512 229.23-512 512s229.23 512 512 512c282.77 0 512-229.23 512-512v0c-0.343-282.632-229.368-511.657-511.967-512h-0.033zM512 899.765c-249.503 0-451.765-202.262-451.765-451.765s202.262-451.765 451.765-451.765c249.503 0 451.765 202.262 451.765 451.765v0c0 249.503-202.262 451.765-451.765 451.765v0zM481.882 207.059h60.235v-60.235h-60.235v60.235zM542.118 267.294h-60.235v120.471c0 16.634 13.484 30.118 30.118 30.118v0c66.534 0 120.471 53.937 120.471 120.471s-53.937 120.471-120.471 120.471c-66.534 0-120.471-53.937-120.471-120.471v0h-60.235c1.426 98.707 81.777 178.175 180.688 178.175 99.801 0 180.706-80.905 180.706-180.706 0-89.156-64.566-163.232-149.491-178.020l-1.080-0.156z" />
<glyph unicode="&#xe942;" glyph-name="Icons-52" d="M752.941-64h-542.118c-49.901 0-90.353 40.452-90.353 90.353v0 722.824c0 49.901 40.452 90.353 90.353 90.353v0h542.118c49.901 0 90.353-40.452 90.353-90.353v0-722.824c0-49.901-40.452-90.353-90.353-90.353v0zM210.824 779.294c-16.634 0-30.118-13.484-30.118-30.118v0-722.824c0-16.634 13.484-30.118 30.118-30.118v0h542.118c16.634 0 30.118 13.484 30.118 30.118v0 722.824c0 16.634-13.484 30.118-30.118 30.118v0zM873.412-3.765h-60.235v60.235h60.235c16.634 0 30.118 13.484 30.118 30.118v0 783.059c0 16.634-13.484 30.118-30.118 30.118v0h-542.118c-16.634 0-30.118-13.484-30.118-30.118v0-60.235h-60.235v60.235c0 49.901 40.452 90.353 90.353 90.353v0h542.118c49.901 0 90.353-40.452 90.353-90.353v0-783.059c0-49.901-40.452-90.353-90.353-90.353v0zM271.059 658.824h421.647v-60.235h-421.647v60.235zM271.059 497.995h421.647v-60.235h-421.647v60.235zM271.059 337.769h421.647v-60.235h-421.647v60.235zM271.059 176.941h421.647v-60.235h-421.647v60.235z" />
<glyph unicode="&#xe943;" glyph-name="Icons-53" d="M692.706-64h-602.353c-49.901 0-90.353 40.452-90.353 90.353v0 843.294c0 49.901 40.452 90.353 90.353 90.353v0h602.353c49.901 0 90.353-40.452 90.353-90.353v0-60.235h-60.235v60.235c0 16.634-13.484 30.118-30.118 30.118v0h-602.353c-16.634 0-30.118-13.484-30.118-30.118v0-843.294c0-16.634 13.484-30.118 30.118-30.118v0h602.353c16.634 0 30.118 13.484 30.118 30.118v0 189.741h60.235v-189.741c0-49.901-40.452-90.353-90.353-90.353v0zM150.588 749.176h361.412v-60.235h-361.412v60.235zM150.588 568.471h361.412v-60.235h-361.412v60.235zM150.588 387.765h240.941v-60.235h-240.941v60.235zM150.588 207.059h240.941v-60.235h-240.941v60.235zM752.941 519.68c-0.179-0.001-0.391-0.001-0.602-0.001-88.49 0-160.226 71.736-160.226 160.226s71.736 160.226 160.226 160.226c88.49 0 160.225-71.735 160.226-160.225v0c0 0 0-0.001 0-0.001 0-88.279-71.393-159.882-159.591-160.225h-0.033zM752.941 779.294c-0.178 0.001-0.389 0.002-0.601 0.002-55.223 0-99.991-44.767-99.991-99.991s44.767-99.991 99.991-99.991c55.223 0 99.991 44.767 99.991 99.991 0 0.211-0.001 0.422-0.002 0.633v-0.032c0 54.891-44.498 99.388-99.388 99.388v0zM993.882 185.976h-481.882c-16.634 0-30.118 13.484-30.118 30.118v0c0 149.702 121.357 271.059 271.059 271.059s271.059-121.357 271.059-271.059v0c0-16.634-13.484-30.118-30.118-30.118v0zM542.118 246.212h421.647c-15.982 101.963-103.197 179.041-208.414 179.041s-192.432-77.078-208.26-177.85l-0.154-1.191z" />
<glyph unicode="&#xe944;" glyph-name="Icons-54" d="M512 478.118c-133.068 0-240.941 107.873-240.941 240.941s107.873 240.941 240.941 240.941c133.068 0 240.941-107.873 240.941-240.941v0c0-133.068-107.873-240.941-240.941-240.941v0zM512 899.765c-99.801 0-180.706-80.905-180.706-180.706s80.905-180.706 180.706-180.706c99.801 0 180.706 80.905 180.706 180.706v0c0 99.801-80.905 180.706-180.706 180.706v0zM903.529-64h-783.059c-16.634 0-30.118 13.484-30.118 30.118v0c0 232.869 188.778 421.647 421.647 421.647s421.647-188.778 421.647-421.647v0c0-16.634-13.484-30.118-30.118-30.118v0zM151.793-3.765h722.824c0 199.602-161.81 361.412-361.412 361.412s-361.412-161.81-361.412-361.412v0z" />
<glyph unicode="&#xe945;" glyph-name="Icons-55" d="M893.289-64h-258.409c-16.634 0-30.118 13.484-30.118 30.118v0 602.353h-42.165c-31.832 1.781-56.971 28.028-56.971 60.147 0 12.371 3.729 23.871 10.125 33.437l-0.138-0.219 201.788 274.673c11.131 13.575 27.903 22.169 46.682 22.169s35.551-8.594 46.598-22.063l0.084-0.106 201.788-272.264c6.23-9.332 9.941-20.807 9.941-33.148 0-32.738-26.118-59.377-58.654-60.215l-0.078-0.002h-42.165v-602.353c0.064-0.736 0.1-1.593 0.1-2.458 0-16.033-12.528-29.14-28.329-30.065l-0.082-0.004zM662.588-3.765h198.174v602.353c0 16.634 13.484 30.118 30.118 30.118v0h72.885l-201.186 271.059-198.776-271.661h71.078c15.392-1.27 27.438-13.944 27.708-29.489v-0.027zM636.085-64h-201.788c-16.634 0-30.118 13.484-30.118 30.118v0 396.951c0 79.176 64.184 143.36 143.36 143.36v0h88.546c16.634 0 30.118-13.484 30.118-30.118v0-510.193c0-16.634-13.484-30.118-30.118-30.118v0zM464.414-3.765h141.553v449.958h-60.235c-45.125-1.012-81.318-37.832-81.318-83.105 0-0.007 0-0.014 0-0.021v0.001zM434.296-64h-202.391c-16.634 0-30.118 13.484-30.118 30.118v0 271.059c0 69.861 56.633 126.494 126.494 126.494v0h106.014c16.499-0.331 29.787-13.619 30.117-30.086v-367.466c0-16.634-13.484-30.118-30.118-30.118v0zM262.024-3.765h142.155v305.995h-75.896c-0.003 0-0.007 0-0.011 0-36.17 0-65.571-28.982-66.247-64.991l-0.001-0.063zM231.906-64h-201.788c-16.634 0-30.118 13.484-30.118 30.118v0 150.588c0 58.217 47.194 105.412 105.412 105.412v0h126.494c16.634 0 30.118-13.484 30.118-30.118v0-225.882c0-16.634-13.484-30.118-30.118-30.118v0zM60.235-3.765h141.553v165.647h-96.376c-24.95 0-45.176-20.226-45.176-45.176v0z" />
<glyph unicode="&#xe946;" glyph-name="Icons-56" d="M139.746-64c-1.719-0.407-3.694-0.64-5.722-0.64s-4.003 0.233-5.897 0.674l0.175-0.034c-10.906 4.734-18.443 15.313-18.673 27.679v115.681c-67.168 55.646-109.634 139.073-109.634 232.42 0 0.666 0.002 1.332 0.006 1.998l-0.001-0.102c0.341 168.648 136.793 305.312 305.328 305.995h51.867c163.054-7.464 292.422-141.471 292.422-305.694s-129.368-298.23-291.753-305.67l-0.669-0.024h-51.802c-25.473 0.101-50.18 3.169-73.858 8.876l2.178-0.443-72.282-71.68c-5.546-5.564-13.21-9.014-21.681-9.035h-0.004zM305.393 559.435c-135.47-0.343-245.158-110.241-245.158-245.759 0 0 0 0 0 0v0c-0.014-0.982-0.023-2.141-0.023-3.302 0-79.093 38.11-149.284 96.969-193.214l0.635-0.453c7.341-5.433 12.049-14.063 12.049-23.792 0-0.106-0.001-0.212-0.002-0.318v0.016-54.814l33.129 33.129c5.429 5.326 12.874 8.614 21.087 8.614 3.225 0 6.331-0.507 9.244-1.445l-0.213 0.059c21.538-6.878 46.312-10.843 72.011-10.843 0.095 0 0.191 0 0.286 0h51.787c130.394 6.661 233.597 114.008 233.597 245.459s-103.203 238.798-233.005 245.435l-0.592 0.024zM843.294 329.939c-0.054 0-0.117-0.001-0.181-0.001-8.122 0-15.493 3.215-20.91 8.442l-70.466 70.466h-149.384v60.235h163.84c0.039 0 0.084 0 0.13 0 11.469 0 21.41-6.542 26.296-16.097l0.077-0.167 20.48-20.48v6.626c0 16.634 13.484 30.118 30.118 30.118v0h42.767c0.179-0.001 0.391-0.002 0.602-0.002 42.582 0 77.101 34.519 77.101 77.101 0 0.001 0 0.002 0 0.003v0 275.878c0 42.914-34.789 77.704-77.704 77.704v0h-386.711c-42.914 0-77.704-34.789-77.704-77.704v0-234.918h-60.235v234.918c0.341 76.044 61.895 137.598 137.906 137.939h386.743c76.044-0.341 137.598-61.895 137.939-137.906v-275.91c-0.342-75.922-61.968-137.336-137.938-137.336 0 0-0.001 0-0.001 0h-12.649v-51.2c0.002-0.134 0.003-0.292 0.003-0.451 0-12.507-7.624-23.234-18.478-27.786l-0.198-0.074c-1.125-0.118-2.43-0.186-3.751-0.186-2.724 0-5.381 0.287-7.942 0.832l0.248-0.044z" />
<glyph unicode="&#xe947;" glyph-name="Icons-57" d="M512-64h-421.647c-49.901 0-90.353 40.452-90.353 90.353v0 687.285c0 49.901 40.452 90.353 90.353 90.353v0h90.353v-60.235h-90.353c-16.634 0-30.118-13.484-30.118-30.118v0-687.285c0-16.634 13.484-30.118 30.118-30.118v0h391.529v777.638h60.235v-807.755c0-16.634-13.484-30.118-30.118-30.118v0zM512-64c-1.901-0.41-4.086-0.645-6.325-0.645s-4.423 0.235-6.529 0.682l0.205-0.036-334.306 156.612c-10.381 4.725-17.469 15.007-17.469 26.945 0 0.057 0 0.113 0 0.17v-0.009 715.595c0 0.037 0 0.080 0 0.123 0 31.875 16.396 59.921 41.215 76.162l0.347 0.213c13.829 8.733 30.657 13.915 48.695 13.915 14.021 0 27.311-3.131 39.208-8.732l-0.563 0.238 248.169-116.254c10.381-4.725 17.469-15.007 17.469-26.945 0-0.057 0-0.113 0-0.17v0.009-807.755c-0.25-10.694-5.624-20.081-13.752-25.833l-0.102-0.068c-4.503-2.654-9.921-4.221-15.705-4.221-0.197 0-0.393 0.002-0.588 0.005h0.029zM210.824 141.402l271.059-128.301v741.496l-231.304 107.821c-4.116 2.555-9.109 4.070-14.456 4.070s-10.341-1.515-14.575-4.139l0.118 0.068c-8.362-5.022-13.87-14.043-13.87-24.351 0-0.333 0.006-0.665 0.017-0.996l-0.001 0.048zM933.647-64h-421.647c-16.634 0-30.118 13.484-30.118 30.118v0 807.755h60.235v-777.638h391.529c16.634 0 30.118 13.484 30.118 30.118v0 687.285c0 16.634-13.484 30.118-30.118 30.118v0h-87.341v60.235h87.341c49.901 0 90.353-40.452 90.353-90.353v0-687.285c0-49.901-40.452-90.353-90.353-90.353v0zM512-64c-0.166-0.003-0.362-0.005-0.559-0.005-5.784 0-11.202 1.568-15.851 4.301l0.147-0.080c-8.23 5.82-13.604 15.208-13.853 25.863l-0.001 0.038v807.755c0 0.048 0 0.104 0 0.161 0 11.938 7.087 22.22 17.284 26.87l0.185 0.075 248.169 116.254c11.335 5.363 24.625 8.494 38.646 8.494 18.038 0 34.866-5.182 49.076-14.14l-0.381 0.224c25.166-16.455 41.562-44.5 41.562-76.375 0-0.043 0-0.087 0-0.13v0.007-713.186c0-0.048 0-0.104 0-0.161 0-11.938-7.087-22.22-17.284-26.87l-0.185-0.075-334.306-159.021c-1.901-0.41-4.086-0.645-6.325-0.645s-4.423 0.235-6.529 0.682l0.205-0.036zM542.118 754.598v-741.496l274.071 128.301v693.911c0.010 0.283 0.016 0.615 0.016 0.948 0 10.307-5.508 19.328-13.742 24.279l-0.128 0.071c-4.116 2.555-9.109 4.070-14.456 4.070s-10.341-1.515-14.575-4.139l0.118 0.068z" />
<glyph unicode="&#xe948;" glyph-name="Icons-58" d="M692.706-64h-602.353c-49.901 0-90.353 40.452-90.353 90.353v0 843.294c0 49.901 40.452 90.353 90.353 90.353v0h602.353c49.901 0 90.353-40.452 90.353-90.353v0-96.376h-60.235v96.376c0 16.634-13.484 30.118-30.118 30.118v0h-602.353c-16.634 0-30.118-13.484-30.118-30.118v0-843.294c0-16.634 13.484-30.118 30.118-30.118v0h602.353c16.634 0 30.118 13.484 30.118 30.118v0 455.981h60.235v-455.981c0-49.901-40.452-90.353-90.353-90.353v0zM150.588 749.176h361.412v-60.235h-361.412v60.235zM150.588 568.471h180.706v-60.235h-180.706v60.235zM150.588 387.765h120.471v-60.235h-120.471v60.235zM150.588 207.059h481.882v-60.235h-481.882v60.235zM383.699 228.141c-0.452-0.026-0.982-0.041-1.514-0.041-8.2 0-15.586 3.486-20.756 9.058l-0.016 0.018c-5.695 5.197-9.255 12.651-9.255 20.937 0 2.404 0.3 4.738 0.864 6.967l-0.042-0.196 45.176 189.139c1.076 5.737 3.87 10.694 7.819 14.446l0.011 0.011 393.336 393.939c16.412 16.184 38.964 26.178 63.849 26.178s47.437-9.994 63.86-26.188l60.225-60.225c16.473-16.279 26.676-38.873 26.676-63.849s-10.202-47.57-26.667-63.841l-0.009-0.009-393.336-393.939c-3.959-3.643-8.826-6.362-14.222-7.778l-0.235-0.052-189.139-43.369zM454.776 432.339l-33.129-134.927 133.722 30.72 389.722 390.927c5.36 5.523 8.664 13.068 8.664 21.384s-3.304 15.86-8.671 21.391l0.007-0.008-60.235 60.235c-5.459 5.502-13.023 8.909-21.384 8.909s-15.925-3.406-21.382-8.907l-0.002-0.002z" />
<glyph unicode="&#xe949;" glyph-name="Icons-59" d="M692.706-64h-602.353c-49.901 0-90.353 40.452-90.353 90.353v0 843.294c0 49.901 40.452 90.353 90.353 90.353v0h602.353c49.901 0 90.353-40.452 90.353-90.353v0-60.235h-60.235v60.235c0 16.634-13.484 30.118-30.118 30.118v0h-602.353c-16.634 0-30.118-13.484-30.118-30.118v0-843.294c0-16.634 13.484-30.118 30.118-30.118v0h602.353c16.634 0 30.118 13.484 30.118 30.118v0 301.176h60.235v-301.176c0-49.901-40.452-90.353-90.353-90.353v0zM150.588 749.176h301.176v-60.235h-301.176v60.235zM150.588 568.471h240.941v-60.235h-240.941v60.235zM150.588 387.765h301.176v-60.235h-301.176v60.235zM150.588 207.059h481.882v-60.235h-481.882v60.235zM788.48 297.412h-71.078c-12.955 0.006-23.997 8.19-28.243 19.669l-0.068 0.209-4.216 10.24-9.638 25.901c-7.849 2.705-14.414 5.553-20.72 8.831l0.842-0.398-12.047-6.626-13.252-6.626c-5.609-3.287-12.351-5.229-19.548-5.229-11.295 0-21.474 4.783-28.62 12.434l-0.021 0.023-39.755 41.562c-7.674 7.167-12.457 17.345-12.457 28.641 0 7.196 1.941 13.939 5.329 19.733l-0.1-0.185 5.421 10.842c0 5.421 5.421 10.24 7.831 15.059-2.88 5.464-5.728 12.029-8.108 18.814l-0.325 1.064-25.299 9.035-10.842 4.216c-12.442 3.711-21.408 14.927-21.684 28.279l-0.001 0.032v71.078c0.006 12.955 8.19 23.997 19.669 28.243l0.209 0.068 10.24 4.216 25.901 9.035c2.705 7.849 5.553 14.414 8.831 20.72l-0.398-0.842-4.216 12.649-7.228 13.252c-3.101 5.58-4.926 12.237-4.926 19.321 0 11.309 4.652 21.532 12.146 28.859l0.008 0.007c14.456 13.854 27.708 27.708 41.562 41.562 7.167 7.674 17.345 12.457 28.641 12.457 7.196 0 13.939-1.941 19.733-5.329l-0.185 0.1 10.842-5.421 15.059-7.831c5.519 2.945 12.087 5.796 18.891 8.138l0.987 0.295 9.035 25.299 4.216 10.842c4.089 11.147 14.276 19.107 26.416 19.873l0.087 0.004h71.078c12.955-0.006 23.997-8.19 28.243-19.669l0.068-0.209 4.216-11.445 9.035-25.299 19.878-8.433 24.696 13.252c5.863 3.513 12.936 5.591 20.494 5.591 11.633 0 22.116-4.922 29.481-12.796l0.021-0.023c13.252-13.854 26.504-27.106 40.358-40.358 7.991-7.298 12.985-17.761 12.985-29.391 0-7.616-2.141-14.731-5.855-20.777l0.099 0.173-8.433-13.854-5.421-10.842c3.012-6.024 5.421-12.649 8.433-19.878l24.094-8.433 12.047-4.819c11.688-4.314 19.872-15.356 19.878-28.31v-71.079c-0.006-12.955-8.19-23.997-19.669-28.243l-0.209-0.068-10.24-4.216c-8.433 0-17.468-6.626-26.504-9.035-2.098-7.834-4.772-14.64-8.101-21.052l0.27 0.572 5.421-10.24 7.228-13.854c3.656-5.954 5.822-13.165 5.822-20.881 0-11.744-5.016-22.316-13.022-29.691l-0.028-0.026c-13.854-12.649-27.106-25.901-40.358-39.755-7.386-7.897-17.869-12.819-29.502-12.819-7.558 0-14.63 2.077-20.678 5.693l0.184-0.102-13.252 8.433-10.24 5.421c-5.464-2.88-12.029-5.728-18.814-8.108l-1.064-0.325c-2.921-10.128-5.997-18.527-9.568-26.66l0.533 1.361-4.216-10.842c-3.918-12.19-15.073-20.892-28.288-21.082h-0.022zM737.882 357.647h30.118c0 5.421 4.216 11.445 5.421 16.866 4.494 17.326 17.722 30.755 34.589 35.456l0.347 0.083c8.293 2.076 15.512 4.757 22.334 8.12l-0.65-0.289c6.048 3.551 13.32 5.649 21.082 5.649s15.035-2.098 21.281-5.757l-0.199 0.108 15.059-7.831h4.216l21.685 21.685v3.614c-3.194 5.284-6.374 9.807-9.828 14.099l0.19-0.245c-3.439 6.174-5.464 13.542-5.464 21.384s2.025 15.21 5.58 21.611l-0.116-0.228c3.307 5.197 5.988 11.21 7.724 17.611l0.106 0.46c4.553 19.036 19.411 33.693 38.214 37.885l0.337 0.063 13.854 5.421v30.118l-20.48 6.626c-14.99 4.76-26.562 16.332-31.23 30.985l-0.093 0.337c-2.247 8.054-5.122 15.053-8.699 21.616l0.266-0.534c-4.137 6.692-6.588 14.806-6.588 23.492s2.451 16.8 6.7 23.686l-0.112-0.195 7.228 13.854v3.614l-21.685 21.082-20.48-9.035c-5.075-2.143-10.976-3.389-17.167-3.389s-12.092 1.246-17.465 3.5l0.298-0.111c-13.914 4.969-25.442 10.048-36.551 15.823l1.615-0.764c-10.054 5.161-17.975 13.276-22.758 23.189l-0.132 0.303-9.035 21.685h-29.515c0-6.626-4.819-13.854-6.626-20.48-4.207-15.16-16.051-26.803-31.022-30.654l-0.301-0.066c-6.662-1.898-12.459-4.362-17.864-7.435l0.396 0.207c-7.549-5.028-16.827-8.023-26.805-8.023s-19.256 2.995-26.984 8.135l0.179-0.112-13.854 7.228-21.685-21.685 9.035-17.468c3.546-6.148 5.638-13.521 5.638-21.384s-2.092-15.236-5.75-21.594l0.112 0.211c-3.203-5.341-6.057-11.514-8.236-17.997l-0.197-0.676c-4.108-18.35-18.003-32.646-35.798-37.27l-0.343-0.076-15.661-6.626v-30.118l19.275-6.626c15.914-3.979 28.256-16.121 32.455-31.612l0.072-0.312c2.093-7.598 4.765-14.199 8.086-20.4l-0.256 0.523c4.486-6.897 7.153-15.335 7.153-24.395s-2.667-17.498-7.26-24.571l0.107 0.175c-3.012-5.421-5.421-10.842-8.433-15.661l21.685-22.287 17.468 9.638c6.415 4.049 14.221 6.452 22.588 6.452s16.173-2.403 22.765-6.556l-0.177 0.104c4.823-2.787 10.41-5.242 16.273-7.069l0.593-0.159c18.49-3.834 32.914-17.855 37.278-35.812l0.068-0.33c1.807-6.024 4.216-11.445 6.024-16.866zM881.845 398.005v0zM586.692 417.882v0zM919.191 417.882v0zM586.089 719.059v0zM602.353 735.322v0zM843.294 772.066v0zM824.621 784.715v0zM752.941 437.76c-72.189 0-130.711 58.521-130.711 130.711s58.521 130.711 130.711 130.711c72.189 0 130.711-58.521 130.711-130.711v0c0-72.189-58.521-130.711-130.711-130.711v0zM752.941 638.946c-38.922 0-70.475-31.553-70.475-70.475s31.553-70.475 70.475-70.475c38.922 0 70.475 31.553 70.475 70.475v0c-0.338 38.786-31.689 70.138-70.443 70.475h-0.032z" />
<glyph unicode="&#xe94a;" glyph-name="Icons-60" d="M583.68-64h-143.36c-12.897 0.188-23.854 8.295-28.239 19.668l-0.071 0.21-7.831 21.082c-7.228 18.673-13.854 36.744-19.878 55.416s-4.216 10.842-9.035 12.047c-22.794 5.397-42.89 13.689-61.215 24.636l0.98-0.542-39.153-19.878-26.504-13.854c-7.014-4.134-15.453-6.576-24.463-6.576-14.118 0-26.835 5.996-35.744 15.581l-0.028 0.030c-27.106 28.311-54.814 56.019-83.125 83.727-9.615 8.937-15.611 21.654-15.611 35.772 0 9.010 2.442 17.449 6.7 24.692l-0.124-0.229c4.216 7.831 7.831 15.661 12.047 22.889s12.649 25.901 19.878 37.948v7.831c-9.73 17.293-17.964 37.316-23.666 58.379l-0.428 1.856 3.614 31.925-9.035-28.311c-19.275 6.024-39.153 13.252-60.235 20.48l-23.492 8.433c-9.407 5.218-15.669 15.090-15.669 26.425 0 0.239 0.003 0.478 0.008 0.716l-0.001-0.035v143.36c0.006 12.955 8.19 23.997 19.669 28.243l0.209 0.068 22.889 8.433c17.468 6.626 35.539 13.252 54.212 19.275s10.842 4.216 12.047 9.035c5.923 22.87 14.171 42.911 24.737 61.461l-0.643-1.226-19.878 37.948c-4.819 9.035-9.035 18.071-13.854 26.504-4.169 7.090-6.632 15.618-6.632 24.721 0 13.934 5.77 26.521 15.051 35.501l0.014 0.013 83.727 82.522c8.937 9.615 21.654 15.611 35.772 15.611 9.010 0 17.449-2.442 24.692-6.7l-0.229 0.124 21.685-10.842c12.047-6.024 24.696-12.047 36.141-19.275s7.831-4.216 13.252 0c17.354 10.23 37.468 18.329 58.806 23.216l1.429 0.275 22.889 60.235 6.024 25.299c4.314 11.688 15.356 19.872 28.31 19.878h143.361c12.955-0.006 23.997-8.19 28.243-19.669l0.068-0.209 7.831-22.889c7.831-20.48 15.059-41.562 22.889-60.235 22.287-10.842 42.165-19.275 63.247-27.106 25.985 11.396 46.945 22.069 67.265 33.731l-3.416-1.807c7.548 4.815 16.749 7.675 26.618 7.675 15.088 0 28.614-6.683 37.781-17.251l0.053-0.062c26.504-27.106 53.609-53.609 80.715-80.113 10.444-9.311 16.988-22.802 16.988-37.822 0-10.11-2.965-19.527-8.073-27.43l0.12 0.198c-5.421-9.035-10.24-18.673-15.059-28.311s-10.24-21.082-16.264-31.322c9.035-22.287 16.866-41.562 24.094-64.452l60.235-24.696 24.094-8.433c11.688-4.314 19.872-15.356 19.878-28.31v-145.168c-0.188-12.897-8.295-23.854-19.668-28.239l-0.21-0.071-21.082-7.831c-18.071-7.228-36.141-13.854-54.212-19.275s-12.649-5.421-13.854-11.445c-6.613-21.909-14.801-40.871-24.836-58.653l0.742 1.429c5.605-8.776 11.423-19.235 16.645-30.037l0.823-1.888c4.819-10.24 10.24-19.878 15.661-30.118 4.838-7.618 7.71-16.897 7.71-26.847 0-14.905-6.445-28.306-16.701-37.565l-0.044-0.039c-27.106-26.504-54.212-53.007-80.715-80.715-9.299-10.3-22.699-16.745-37.605-16.745-9.95 0-19.229 2.872-27.054 7.832l0.207-0.122-29.515 15.661-33.732 17.468c-17.234-9.836-37.201-18.439-58.158-24.76l-2.077-0.538c-5.421 0-5.421 0-7.831-9.035-6.024-19.275-12.649-37.948-19.878-56.621l-8.433-22.287c-3.754-10.268-12.546-17.861-23.303-19.849l-0.189-0.029zM463.209-3.765h99.388v3.614c6.626 16.866 13.252 34.334 18.673 52.405 6.079 24.583 24.918 43.623 48.919 49.89l0.474 0.105c18.171 5.486 33.941 12.447 48.636 21.048l-1.050-0.568c8.005 4.836 17.673 7.697 28.009 7.697s20.005-2.861 28.256-7.834l-0.247 0.138 59.031-30.118 74.692 74.089c-5.421 9.638-10.24 18.673-14.456 27.708l-16.264 31.322c-4.836 8.005-7.697 17.673-7.697 28.009s2.861 20.005 7.834 28.256l-0.138-0.247c7.774 12.478 14.158 26.896 18.398 42.205l0.275 1.164c6.757 27.312 27.999 48.353 54.914 54.714l0.503 0.1c16.866 4.819 33.732 11.445 49.995 17.468v0 101.195h-4.819c-18.673 7.228-37.346 13.854-56.621 19.878-21.066 5.79-37.268 22.191-42.674 42.951l-0.093 0.419c-5.974 18.487-12.706 34.228-20.667 49.215l0.79-1.63c-5.745 9.061-9.156 20.094-9.156 31.925s3.41 22.864 9.302 32.172l-0.146-0.247c5.421 9.638 10.24 19.275 15.059 28.913s9.035 18.071 13.854 26.504l-71.68 75.896c-21.082-11.445-41.562-22.287-60.235-31.322-6.85-2.936-14.821-4.643-23.191-4.643s-16.341 1.707-23.584 4.792l0.394-0.149c-22.889 8.433-45.176 18.071-66.861 28.311-14.134 6.968-25.115 18.534-31.163 32.709l-0.16 0.421c-11.445 19.275-18.673 40.96-26.504 65.054v0h-101.798v-3.614c-7.228-19.275-14.456-38.551-20.48-60.235-5.657-20.414-21.264-36.221-41.136-42.057l-0.426-0.107c-16.825-3.307-31.746-8.307-45.735-14.953l1.161 0.496c-10.673-7.167-23.812-11.438-37.948-11.438s-27.275 4.272-38.196 11.595l0.248-0.156c-8.728 5.552-19.186 11.369-29.975 16.613l-1.95 0.855-16.866 8.433-74.692-74.692 11.445-22.287 19.275-36.744c4.836-8.005 7.697-17.673 7.697-28.009s-2.861-20.005-7.834-28.256l0.138 0.247c-7.926-12.997-14.508-28.007-18.97-43.904l-0.305-1.272c-6.517-26.089-26.812-46.183-52.524-52.308l-0.483-0.097-50.598-18.071-3.012-1.205v-101.195h3.614c18.673-7.228 37.346-13.854 56.621-19.878 21.953-5.315 38.965-22.127 44.483-43.554l0.091-0.418c5.004-17.493 11.364-32.683 19.249-46.912l-0.576 1.133c6.232-9.629 9.937-21.398 9.937-34.033s-3.705-24.404-10.087-34.281l0.15 0.248c-6.626-10.842-12.047-22.287-18.071-34.334l-9.638-18.673 74.692-74.692 21.685 11.445 34.936 18.673c8.639 5.074 19.029 8.070 30.118 8.070s21.478-2.996 30.402-8.224l-0.284 0.154c11.95-7.795 25.761-14.171 40.478-18.406l1.084-0.267c26.557-5.53 47.177-25.948 52.923-51.953l0.084-0.452c5.421-17.468 12.047-34.334 18.673-51.802zM512 217.299c-127.413 0-230.701 103.288-230.701 230.701s103.288 230.701 230.701 230.701c127.413 0 230.701-103.288 230.701-230.701v0c-0.342-127.275-103.426-230.36-230.668-230.701h-0.033zM512 618.466c-94.146 0-170.466-76.32-170.466-170.466s76.32-170.466 170.466-170.466c94.146 0 170.466 76.32 170.466 170.466v0c0 94.146-76.32 170.466-170.466 170.466v0z" />
<glyph unicode="&#xe94b;" glyph-name="Icons-61" d="M692.706-64h-602.353c-49.901 0-90.353 40.452-90.353 90.353v0 843.294c0 49.901 40.452 90.353 90.353 90.353v0h602.353c49.901 0 90.353-40.452 90.353-90.353v0h-60.235c0 16.634-13.484 30.118-30.118 30.118v0h-602.353c-16.634 0-30.118-13.484-30.118-30.118v0-843.294c0-16.634 13.484-30.118 30.118-30.118v0h602.353c16.634 0 30.118 13.484 30.118 30.118v0h60.235c0-49.901-40.452-90.353-90.353-90.353v0zM331.294 478.118h662.588v-60.235h-662.588v60.235zM834.259 246.212l-42.165 42.165 159.021 159.624-159.021 159.624 42.165 42.165 180.706-180.706c5.624-5.288 9.127-12.776 9.127-21.082s-3.503-15.795-9.112-21.068l-0.015-0.014zM722.824 869.647h60.235v-180.706h-60.235v180.706zM722.824 207.059h60.235v-180.706h-60.235v180.706z" />
<glyph unicode="&#xe94c;" glyph-name="Icons-64" d="M662.588 809.412h-60.235c0 49.901-40.452 90.353-90.353 90.353s-90.353-40.452-90.353-90.353v0h-60.235c0 83.168 67.421 150.588 150.588 150.588s150.588-67.421 150.588-150.588v0zM512-64c-83.168 0-150.588 67.421-150.588 150.588v0h60.235c0-49.901 40.452-90.353 90.353-90.353s90.353 40.452 90.353 90.353v0h60.235c0-83.168-67.421-150.588-150.588-150.588v0zM843.294 56.471h-662.588c-66.534 0-120.471 53.937-120.471 120.471s53.937 120.471 120.471 120.471v0h662.588c66.534 0 120.471-53.937 120.471-120.471s-53.937-120.471-120.471-120.471v0zM180.706 237.176c-33.267 0-60.235-26.968-60.235-60.235s26.968-60.235 60.235-60.235v0h662.588c33.267 0 60.235 26.968 60.235 60.235s-26.968 60.235-60.235 60.235v0zM814.984 237.176h-602.353c-16.634 0-30.118 13.484-30.118 30.118v0 275.275c0 0.003 0 0.006 0 0.010 0 164.006 132.954 296.96 296.96 296.96 0.847 0 1.694-0.004 2.539-0.011l-0.13 0.001h66.259c163.228-1.025 295.153-133.583 295.153-296.955 0-0.002 0-0.004 0-0.006v0.001-275.275c0-0.016 0-0.035 0-0.054 0-15.998-12.473-29.082-28.225-30.059l-0.086-0.004zM240.941 297.412h542.118v245.158c0 0.002 0 0.004 0 0.007 0 130.104-104.958 235.694-234.82 236.717l-0.097 0.001h-66.259c-1.254 0.024-2.734 0.038-4.216 0.038-130.739 0-236.725-105.985-236.725-236.725 0-0.013 0-0.026 0-0.040v0.002z" />
<glyph unicode="&#xe94d;" glyph-name="Icons-72" d="M391.529-64v0c-0.719-0.062-1.555-0.098-2.4-0.098-12.661 0-23.46 7.972-27.651 19.169l-0.067 0.204-361.412 963.765c-0.896 2.725-1.413 5.86-1.413 9.117 0 9.098 4.034 17.253 10.411 22.776l0.038 0.032c5.451 6.465 13.554 10.544 22.61 10.544 3.332 0 6.535-0.552 9.522-1.57l-0.208 0.061 963.765-361.412c11.35-4.285 19.275-15.058 19.275-27.682 0-0.009 0-0.018 0-0.028v0.001c-0.029-12.46-7.329-23.209-17.881-28.229l-291.728-124.768 301.176-301.176c5.624-5.288 9.127-12.776 9.127-21.082s-3.503-15.795-9.112-21.068l-0.015-0.014-127.699-127.699c-5.288-5.624-12.776-9.127-21.082-9.127s-15.795 3.503-21.068 9.112l-0.014 0.015-301.176 301.176-122.88-293.948c-4.926-10.783-15.617-18.142-28.027-18.142-0.736 0-1.465 0.026-2.188 0.077l0.097-0.005zM533.685 328.132c0.090 0.001 0.196 0.001 0.302 0.001 8.275 0 15.801-3.209 21.4-8.451l-0.017 0.016 310.814-310.814 84.932 84.932-310.814 310.814c-5.514 5.552-8.922 13.201-8.922 21.646 0 1.93 0.178 3.818 0.518 5.649l-0.029-0.19c2.499 9.892 9.115 17.889 17.873 22.199l0.198 0.088 263.228 112.64-831.849 312.019 312.019-831.849 112.64 263.228c4.398 8.955 12.395 15.571 22.054 18.020l0.233 0.050z" />
</font>
</defs>
</svg>
