<svg xmlns="http://www.w3.org/2000/svg" viewBox="0 0 61 60.28"><defs><style>.cls-1{fill:#008ff1;opacity:0;}.cls-2{fill:#292c33;}.cls-3{fill:#005ed1;}.cls-4{fill:#e20078;}.cls-5{fill:#fad411;}.cls-6{fill:#c500c4;}.cls-7{fill:#fea910;}.cls-8{fill:#fff;}.cls-9{fill:none;stroke:#eaebec;stroke-miterlimit:10;}</style></defs><title>logo</title><g id="Capa_2" data-name="Capa 2"><g id="Layer_1" data-name="Layer 1"><rect class="cls-1" x="16.65" y="42.57" width="27.7" height="2.22"/><rect class="cls-1" x="16.65" y="33.94" width="27.7" height="3.32"/><path class="cls-2" d="M19.31,42.57a2.6,2.6,0,0,1-2.66-2.65,2.57,2.57,0,0,1,.76-1.9,2.54,2.54,0,0,1,1.9-.76,2.57,2.57,0,0,1,1.28.33,2.54,2.54,0,0,1,.93.88l-1.13.65a1.07,1.07,0,0,0-.44-.43,1.35,1.35,0,0,0-.64-.16,1.31,1.31,0,0,0-1,.39,1.34,1.34,0,0,0-.37,1,1.37,1.37,0,0,0,.37,1,1.34,1.34,0,0,0,1,.38,1.24,1.24,0,0,0,.64-.16,1,1,0,0,0,.44-.43l1.13.66a2.56,2.56,0,0,1-2.21,1.2Z"/><path class="cls-2" d="M23.28,41.24h2v1.23H22v-5.1h3.24v1.21H23.28v.71H25v1.2H23.28Z"/><path class="cls-2" d="M28.69,37.37H30v5.1H29l-1.8-2.57v2.57h-1.3v-5.1h1l1.8,2.56Z"/><path class="cls-2" d="M34.29,37.37v1.26H33v3.84H31.72V38.63H30.46V37.37Z"/><path class="cls-2" d="M37.42,42.47l-.89-1.65h-.47v1.65h-1.3v-5.1h2a1.86,1.86,0,0,1,1.31.5,1.65,1.65,0,0,1,.52,1.26,1.52,1.52,0,0,1-.23.84,1.75,1.75,0,0,1-.63.61l1,1.89Zm-1.36-3.9v1.14h.72a.49.49,0,0,0,.4-.15.58.58,0,0,0,.15-.41.6.6,0,0,0-.15-.42.54.54,0,0,0-.4-.16Z"/><path class="cls-2" d="M43.57,41.81A2.68,2.68,0,0,1,39,39.92,2.54,2.54,0,0,1,39.78,38a2.72,2.72,0,0,1,3.79,0,2.54,2.54,0,0,1,.78,1.89A2.57,2.57,0,0,1,43.57,41.81Zm-2.88-.9a1.36,1.36,0,0,0,1,.39,1.33,1.33,0,0,0,1.37-1.38,1.35,1.35,0,0,0-.39-1,1.33,1.33,0,0,0-1-.39,1.33,1.33,0,0,0-1.38,1.39A1.34,1.34,0,0,0,40.69,40.91Z"/><path class="cls-2" d="M18.49,48.42a1.76,1.76,0,0,1-1.32-.53A1.83,1.83,0,0,1,19.38,45a1.73,1.73,0,0,1,.63.63l-.31.18a1.26,1.26,0,0,0-.49-.51,1.49,1.49,0,0,0-.72-.19,1.41,1.41,0,0,0-1.07.43,1.51,1.51,0,0,0,0,2.09,1.41,1.41,0,0,0,1.07.43,1.39,1.39,0,0,0,.72-.19,1.26,1.26,0,0,0,.49-.51l.31.17a1.59,1.59,0,0,1-.62.64A1.85,1.85,0,0,1,18.49,48.42Z"/><path class="cls-2" d="M23.49,47.89A1.82,1.82,0,1,1,24,46.61,1.76,1.76,0,0,1,23.49,47.89Zm-2.33-.24a1.39,1.39,0,0,0,1,.43,1.45,1.45,0,0,0,1.47-1.47,1.44,1.44,0,0,0-.42-1,1.41,1.41,0,0,0-1.05-.43,1.39,1.39,0,0,0-1,.43,1.44,1.44,0,0,0-.42,1A1.42,1.42,0,0,0,21.16,47.65Z"/><path class="cls-2" d="M27.83,44.85v3.51h-.35v-3l-1.23,2.06H26.2L25,45.38v3h-.35V44.85h.43l1.17,2,1.18-2Z"/><path class="cls-2" d="M29,48h1.71v.33H28.63V44.85h2v.33H29v1.25h1.55v.33H29Z"/><path class="cls-2" d="M33.44,48.36,32.62,47h-1v1.4h-.35V44.85h1.4a1,1,0,0,1,1.05,1,1,1,0,0,1-.21.64,1,1,0,0,1-.54.37l.85,1.45Zm-1.8-3.18v1.45h1a.7.7,0,0,0,.5-.22.75.75,0,0,0,0-1,.69.69,0,0,0-.5-.21Z"/><path class="cls-2" d="M36,48.42a1.72,1.72,0,0,1-1.31-.53A1.82,1.82,0,0,1,36,44.79a1.83,1.83,0,0,1,.9.23,1.63,1.63,0,0,1,.62.63l-.31.18a1.26,1.26,0,0,0-.49-.51,1.46,1.46,0,0,0-.72-.19,1.44,1.44,0,0,0-1.48,1.48,1.41,1.41,0,0,0,.41,1,1.42,1.42,0,0,0,1.07.43,1.36,1.36,0,0,0,.72-.19,1.26,1.26,0,0,0,.49-.51l.31.17a1.59,1.59,0,0,1-.62.64A1.83,1.83,0,0,1,36,48.42Z"/><path class="cls-2" d="M38.08,44.85h.35v3.51h-.35Z"/><path class="cls-2" d="M41.57,48.36l-.33-.86H39.58l-.33.86h-.37l1.35-3.51h.36l1.35,3.51ZM39.7,47.17h1.42l-.71-1.88Z"/><path class="cls-2" d="M42.74,48h1.61v.33h-2V44.85h.35Z"/><path class="cls-3" d="M30,19.49c-.25-.19-.51-.39-.79-.57a14.53,14.53,0,0,0-5.56-2.08c-2.47-.38-4.86,0-6.1,1.49-2.43,3,.44,9.34,3.64,12a7.75,7.75,0,0,0,6,1.7h0a6.6,6.6,0,0,0,4.2-2.36A7.25,7.25,0,0,0,30,19.49Z"/><path class="cls-4" d="M35.31,15.63c-1.53-2.17-3.58-3.77-5.84-3.77-2.53,0-4.81,2-6.38,4.58a14.7,14.7,0,0,0-2.23,7.16,8.49,8.49,0,0,0,5.76,8h0a8.66,8.66,0,0,0,2.8.47,8.55,8.55,0,0,0,8.61-8.46A14.92,14.92,0,0,0,35.31,15.63Z"/><path class="cls-5" d="M42.94,16.51c-1.63-1.76-4.51-2-7.43-1.45A17.41,17.41,0,0,0,28.84,18a12.18,12.18,0,0,0-1,.82,8.89,8.89,0,0,0-1,12.25h0l.22.25a8.86,8.86,0,0,0,12.53.13C43.28,28,46.19,20,42.94,16.51Z"/><path class="cls-6" d="M31.41,29.62A7.25,7.25,0,0,0,30,19.49c-.25-.19-.51-.39-.79-.57a14.53,14.53,0,0,0-5.56-2.08q-.37-.06-.75-.09a14.57,14.57,0,0,0-2.05,6.85,8.49,8.49,0,0,0,5.76,8h0a7.51,7.51,0,0,0,1.06.28A6.63,6.63,0,0,0,31.41,29.62Z"/><path class="cls-7" d="M38.07,23.61a14.92,14.92,0,0,0-2.76-8L35,15.18A17.49,17.49,0,0,0,28.84,18a12.18,12.18,0,0,0-1,.82,8.89,8.89,0,0,0-1,12.25h0l.22.25c.2.21.41.41.62.6a8.58,8.58,0,0,0,10.38-8.27Z"/><path class="cls-8" d="M31,28.92a5.82,5.82,0,0,1-4.32-1.72A5.89,5.89,0,0,1,25,22.9a5.88,5.88,0,0,1,6-6,6,6,0,0,1,2.94.76,5.67,5.67,0,0,1,2.11,2l-2.87,1.65a2,2,0,0,0-.87-.89A2.63,2.63,0,0,0,31,20.1a2.59,2.59,0,0,0-2,.79,3,3,0,0,0,0,4,2.85,2.85,0,0,0,3.3.46,2,2,0,0,0,.86-.91L36,26.11a5.57,5.57,0,0,1-2.11,2.06A6,6,0,0,1,31,28.92Z"/><ellipse class="cls-9" cx="30.5" cy="30.14" rx="30" ry="29.64"/></g></g></svg>