<svg xmlns="http://www.w3.org/2000/svg" viewBox="0 0 82.44 14"><defs><style>.cls-1{fill:#a4a7af;}</style></defs><title>logo-codelabs</title><g id="Capa_2" data-name="Capa 2"><g id="Layer_1" data-name="Layer 1"><polygon class="cls-1" points="44.58 13.75 41.74 13.75 45.37 3.77 48.22 3.77 44.58 13.75"/><path class="cls-1" d="M5,13.74a4.79,4.79,0,0,1-3.56-1.43A4.85,4.85,0,0,1,0,8.76a4.9,4.9,0,0,1,5-5,4.88,4.88,0,0,1,2.51.66A4.33,4.33,0,0,1,9.22,6.21L7.12,7.43a2.12,2.12,0,0,0-.86-.92A2.44,2.44,0,0,0,5,6.17a2.4,2.4,0,0,0-1.81.73,2.52,2.52,0,0,0-.72,1.86,2.52,2.52,0,0,0,.72,1.84A2.44,2.44,0,0,0,5,11.33,2.58,2.58,0,0,0,6.28,11a2.07,2.07,0,0,0,.86-.92l2.12,1.21A4.7,4.7,0,0,1,7.5,13.07,4.79,4.79,0,0,1,5,13.74"/><path class="cls-1" d="M17.68,12.3a4.85,4.85,0,0,1-3.55,1.44,4.93,4.93,0,0,1-5-5,4.86,4.86,0,0,1,1.45-3.55,4.81,4.81,0,0,1,3.54-1.44,5,5,0,0,1,5,5,4.79,4.79,0,0,1-1.46,3.54m-5.37-1.67a2.44,2.44,0,0,0,1.82.73,2.5,2.5,0,0,0,2.57-2.6,2.51,2.51,0,0,0-2.57-2.61,2.45,2.45,0,0,0-1.82.74,2.52,2.52,0,0,0-.73,1.87,2.54,2.54,0,0,0,.73,1.87"/><path class="cls-1" d="M27.26.26H29.7V13.48H27.26V12.37a3.64,3.64,0,0,1-3.06,1.37,4.31,4.31,0,0,1-3.26-1.44,5,5,0,0,1-1.35-3.54,5,5,0,0,1,1.35-3.55A4.31,4.31,0,0,1,24.2,3.77a3.65,3.65,0,0,1,3.06,1.38ZM22.78,10.68a2.75,2.75,0,0,0,3.75,0,2.62,2.62,0,0,0,.73-1.92,2.62,2.62,0,0,0-.73-1.92,2.72,2.72,0,0,0-3.75,0A2.6,2.6,0,0,0,22,8.76a2.6,2.6,0,0,0,.75,1.92"/><path class="cls-1" d="M33.23,9.76a2.43,2.43,0,0,0,2.67,1.77A2.48,2.48,0,0,0,38,10.59l2,1.13a4.68,4.68,0,0,1-4.12,2,5.09,5.09,0,0,1-3.76-1.41,4.84,4.84,0,0,1-1.42-3.57,4.88,4.88,0,0,1,1.4-3.56,4.78,4.78,0,0,1,3.59-1.43A4.49,4.49,0,0,1,39.1,5.21a5,5,0,0,1,1.35,3.55,6,6,0,0,1-.09,1Zm0-1.89H38a2.3,2.3,0,0,0-.86-1.44A2.48,2.48,0,0,0,35.67,6a2.57,2.57,0,0,0-1.62.5,2.35,2.35,0,0,0-.85,1.41"/><rect class="cls-1" x="50.3" width="0.94" height="13.79"/><path class="cls-1" d="M61.71,4.35h1v9.44h-1V11.66a4.43,4.43,0,0,1-1.66,1.72,4.69,4.69,0,0,1-2.4.62,4.74,4.74,0,0,1-3.46-1.43,4.77,4.77,0,0,1-1.43-3.5,4.79,4.79,0,0,1,1.43-3.51,4.94,4.94,0,0,1,5.86-.8,4.43,4.43,0,0,1,1.66,1.72Zm-6.83,7.57a3.88,3.88,0,0,0,2.85,1.17,3.82,3.82,0,0,0,2.83-1.17,3.9,3.9,0,0,0,1.15-2.85,3.9,3.9,0,0,0-1.15-2.85A3.83,3.83,0,0,0,57.73,5a4,4,0,0,0-4,4,3.91,3.91,0,0,0,1.16,2.85"/><path class="cls-1" d="M69.84,4.14A4.7,4.7,0,0,1,73.3,5.56a4.79,4.79,0,0,1,1.43,3.51,4.77,4.77,0,0,1-1.43,3.5A4.71,4.71,0,0,1,69.84,14a4.55,4.55,0,0,1-2.41-.64,4.44,4.44,0,0,1-1.65-1.76v2.19h-1V.57h1v6a4.37,4.37,0,0,1,1.65-1.76,4.55,4.55,0,0,1,2.41-.64m-2.9,7.78a4,4,0,0,0,5.68,0,3.88,3.88,0,0,0,1.17-2.85,3.88,3.88,0,0,0-1.17-2.85,4,4,0,0,0-5.68,0,3.87,3.87,0,0,0-1.16,2.85,3.87,3.87,0,0,0,1.16,2.85"/><path class="cls-1" d="M76.71,6.79a1.22,1.22,0,0,0,.6,1.08,4.82,4.82,0,0,0,1.43.61l1.69.44a3.1,3.1,0,0,1,1.43.82,2.14,2.14,0,0,1,.58,1.58,2.34,2.34,0,0,1-.94,1.92,3.73,3.73,0,0,1-2.44.76,4.25,4.25,0,0,1-2.3-.58,3,3,0,0,1-1.29-1.52l.81-.47a2.28,2.28,0,0,0,1,1.22,3.35,3.35,0,0,0,1.79.44,3,3,0,0,0,1.74-.46,1.49,1.49,0,0,0,.69-1.31,1.3,1.3,0,0,0-.58-1.12,4.59,4.59,0,0,0-1.43-.63l-1.69-.45a3.14,3.14,0,0,1-1.43-.79,2,2,0,0,1-.59-1.51,2.42,2.42,0,0,1,.9-1.91A3.43,3.43,0,0,1,79,4.14a3.77,3.77,0,0,1,2,.51A3,3,0,0,1,82.19,6l-.79.45a2.07,2.07,0,0,0-1-1.07A3,3,0,0,0,79,5a2.63,2.63,0,0,0-1.61.48,1.48,1.48,0,0,0-.66,1.27"/></g></g></svg>